<svg width="188" height="47" viewBox="0 0 188 47" fill="none" xmlns="http://www.w3.org/2000/svg">
<mask id="path-1-outside-1_463_973" maskUnits="userSpaceOnUse" x="66.3345" y="8.41895" width="118" height="28" fill="black">
<rect fill="white" x="66.3345" y="8.41895" width="118" height="28"/>
<path d="M74.4923 35.5561C73.007 35.5561 71.6131 35.339 70.3106 34.9048C69.0309 34.4706 68.0369 33.9222 67.3285 33.2595L68.1169 31.8885C68.8024 32.4826 69.7164 32.9967 70.859 33.4309C72.0015 33.8422 73.2355 34.0479 74.5609 34.0479C76.4346 34.0479 77.7829 33.7394 78.6055 33.1224C79.4281 32.5054 79.8395 31.6942 79.8395 30.6888C79.8395 29.9575 79.6224 29.3863 79.1882 28.9749C78.7769 28.5408 78.217 28.2094 77.5086 27.9809C76.8003 27.7524 76.0233 27.5696 75.1778 27.4325C74.3324 27.2725 73.4869 27.1012 72.6414 26.9183C71.7959 26.7355 71.0189 26.4727 70.3106 26.13C69.6022 25.7872 69.0309 25.3188 68.5967 24.7246C68.1854 24.1077 67.9798 23.2964 67.9798 22.291C67.9798 21.377 68.2311 20.5543 68.7338 19.8231C69.2366 19.0919 69.9906 18.5091 70.9961 18.075C72.0015 17.618 73.2583 17.3894 74.7665 17.3894C75.8862 17.3894 77.0059 17.5494 78.1256 17.8693C79.2682 18.1892 80.1937 18.612 80.902 19.1376L80.1137 20.5086C79.3596 19.9373 78.5141 19.526 77.5772 19.2747C76.6403 19.0233 75.692 18.8976 74.7322 18.8976C72.9956 18.8976 71.7159 19.2175 70.8933 19.8574C70.0935 20.4972 69.6936 21.297 69.6936 22.2567C69.6936 23.0108 69.8992 23.6164 70.3106 24.0734C70.7447 24.5076 71.316 24.8503 72.0244 25.1017C72.7328 25.3302 73.5097 25.5244 74.3552 25.6844C75.2007 25.8215 76.0462 25.9814 76.8917 26.1643C77.7372 26.3471 78.5141 26.6099 79.2225 26.9526C79.9309 27.2725 80.4907 27.7296 80.902 28.3237C81.3362 28.895 81.5533 29.6719 81.5533 30.6545C81.5533 31.6371 81.2791 32.494 80.7307 33.2252C80.2051 33.9565 79.4167 34.5278 78.3656 34.9391C77.3144 35.3504 76.0233 35.5561 74.4923 35.5561ZM87.0217 35.4189V17.5266H88.7356V35.4189H87.0217ZM87.8787 13.1734C87.4902 13.1734 87.1589 13.0363 86.8846 12.7621C86.6104 12.4879 86.4733 12.168 86.4733 11.8024C86.4733 11.4139 86.6104 11.0825 86.8846 10.8083C87.1589 10.5341 87.4902 10.397 87.8787 10.397C88.29 10.397 88.6213 10.5341 88.8727 10.8083C89.1469 11.0597 89.284 11.3796 89.284 11.7681C89.284 12.1565 89.1469 12.4879 88.8727 12.7621C88.6213 13.0363 88.29 13.1734 87.8787 13.1734ZM96.6446 35.4189V9.9857H98.3585V35.4189H96.6446ZM128.547 17.3894C129.987 17.3894 131.232 17.6751 132.283 18.2464C133.357 18.7948 134.192 19.6403 134.786 20.7828C135.38 21.9025 135.677 23.2964 135.677 24.9646V35.4189H133.963V25.1017C133.963 23.0908 133.472 21.5598 132.489 20.5086C131.507 19.4575 130.135 18.9319 128.376 18.9319C127.028 18.9319 125.862 19.2175 124.88 19.7888C123.897 20.3601 123.143 21.1599 122.617 22.1882C122.092 23.2165 121.829 24.4504 121.829 25.89V35.4189H120.115V25.1017C120.115 23.0908 119.624 21.5598 118.641 20.5086C117.659 19.4575 116.288 18.9319 114.528 18.9319C113.18 18.9319 112.015 19.2175 111.032 19.7888C110.049 20.3601 109.295 21.1599 108.77 22.1882C108.244 23.2165 107.981 24.4504 107.981 25.89V35.4189H106.268V17.5266H107.913V22.4624L107.673 21.914C108.198 20.52 109.078 19.4232 110.312 18.6234C111.546 17.8008 113.031 17.3894 114.768 17.3894C116.551 17.3894 118.047 17.8465 119.258 18.7605C120.492 19.6517 121.269 20.9885 121.589 22.7709L121.006 22.5309C121.486 20.9999 122.389 19.766 123.714 18.8291C125.04 17.8693 126.651 17.3894 128.547 17.3894ZM150.706 35.5561C149.175 35.5561 147.849 35.2818 146.729 34.7334C145.61 34.1621 144.741 33.3166 144.124 32.1969C143.53 31.0544 143.233 29.649 143.233 27.9809V17.5266H144.947V27.8438C144.947 29.8547 145.461 31.3857 146.49 32.4369C147.518 33.488 148.969 34.0136 150.843 34.0136C152.191 34.0136 153.356 33.728 154.339 33.1567C155.321 32.5854 156.076 31.7856 156.601 30.7573C157.127 29.7062 157.389 28.4722 157.389 27.0555V17.5266H159.103V35.4189H157.458V30.4488L157.698 31.0315C157.172 32.4255 156.293 33.5337 155.059 34.3564C153.848 35.1562 152.397 35.5561 150.706 35.5561ZM175.794 17.3894C177.257 17.3894 178.525 17.6751 179.599 18.2464C180.696 18.7948 181.541 19.6403 182.135 20.7828C182.752 21.9025 183.061 23.2964 183.061 24.9646V35.4189H181.347V25.1017C181.347 23.0908 180.833 21.5598 179.805 20.5086C178.799 19.4575 177.382 18.9319 175.554 18.9319C174.16 18.9319 172.949 19.2175 171.921 19.7888C170.893 20.3601 170.104 21.1599 169.556 22.1882C169.03 23.2165 168.767 24.4504 168.767 25.89V35.4189H167.054V17.5266H168.699V22.4967L168.459 21.9482C169.007 20.5315 169.91 19.4232 171.167 18.6234C172.424 17.8008 173.966 17.3894 175.794 17.3894Z"/>
</mask>
<path d="M74.4923 35.5561C73.007 35.5561 71.6131 35.339 70.3106 34.9048C69.0309 34.4706 68.0369 33.9222 67.3285 33.2595L68.1169 31.8885C68.8024 32.4826 69.7164 32.9967 70.859 33.4309C72.0015 33.8422 73.2355 34.0479 74.5609 34.0479C76.4346 34.0479 77.7829 33.7394 78.6055 33.1224C79.4281 32.5054 79.8395 31.6942 79.8395 30.6888C79.8395 29.9575 79.6224 29.3863 79.1882 28.9749C78.7769 28.5408 78.217 28.2094 77.5086 27.9809C76.8003 27.7524 76.0233 27.5696 75.1778 27.4325C74.3324 27.2725 73.4869 27.1012 72.6414 26.9183C71.7959 26.7355 71.0189 26.4727 70.3106 26.13C69.6022 25.7872 69.0309 25.3188 68.5967 24.7246C68.1854 24.1077 67.9798 23.2964 67.9798 22.291C67.9798 21.377 68.2311 20.5543 68.7338 19.8231C69.2366 19.0919 69.9906 18.5091 70.9961 18.075C72.0015 17.618 73.2583 17.3894 74.7665 17.3894C75.8862 17.3894 77.0059 17.5494 78.1256 17.8693C79.2682 18.1892 80.1937 18.612 80.902 19.1376L80.1137 20.5086C79.3596 19.9373 78.5141 19.526 77.5772 19.2747C76.6403 19.0233 75.692 18.8976 74.7322 18.8976C72.9956 18.8976 71.7159 19.2175 70.8933 19.8574C70.0935 20.4972 69.6936 21.297 69.6936 22.2567C69.6936 23.0108 69.8992 23.6164 70.3106 24.0734C70.7447 24.5076 71.316 24.8503 72.0244 25.1017C72.7328 25.3302 73.5097 25.5244 74.3552 25.6844C75.2007 25.8215 76.0462 25.9814 76.8917 26.1643C77.7372 26.3471 78.5141 26.6099 79.2225 26.9526C79.9309 27.2725 80.4907 27.7296 80.902 28.3237C81.3362 28.895 81.5533 29.6719 81.5533 30.6545C81.5533 31.6371 81.2791 32.494 80.7307 33.2252C80.2051 33.9565 79.4167 34.5278 78.3656 34.9391C77.3144 35.3504 76.0233 35.5561 74.4923 35.5561ZM87.0217 35.4189V17.5266H88.7356V35.4189H87.0217ZM87.8787 13.1734C87.4902 13.1734 87.1589 13.0363 86.8846 12.7621C86.6104 12.4879 86.4733 12.168 86.4733 11.8024C86.4733 11.4139 86.6104 11.0825 86.8846 10.8083C87.1589 10.5341 87.4902 10.397 87.8787 10.397C88.29 10.397 88.6213 10.5341 88.8727 10.8083C89.1469 11.0597 89.284 11.3796 89.284 11.7681C89.284 12.1565 89.1469 12.4879 88.8727 12.7621C88.6213 13.0363 88.29 13.1734 87.8787 13.1734ZM96.6446 35.4189V9.9857H98.3585V35.4189H96.6446ZM128.547 17.3894C129.987 17.3894 131.232 17.6751 132.283 18.2464C133.357 18.7948 134.192 19.6403 134.786 20.7828C135.38 21.9025 135.677 23.2964 135.677 24.9646V35.4189H133.963V25.1017C133.963 23.0908 133.472 21.5598 132.489 20.5086C131.507 19.4575 130.135 18.9319 128.376 18.9319C127.028 18.9319 125.862 19.2175 124.88 19.7888C123.897 20.3601 123.143 21.1599 122.617 22.1882C122.092 23.2165 121.829 24.4504 121.829 25.89V35.4189H120.115V25.1017C120.115 23.0908 119.624 21.5598 118.641 20.5086C117.659 19.4575 116.288 18.9319 114.528 18.9319C113.18 18.9319 112.015 19.2175 111.032 19.7888C110.049 20.3601 109.295 21.1599 108.77 22.1882C108.244 23.2165 107.981 24.4504 107.981 25.89V35.4189H106.268V17.5266H107.913V22.4624L107.673 21.914C108.198 20.52 109.078 19.4232 110.312 18.6234C111.546 17.8008 113.031 17.3894 114.768 17.3894C116.551 17.3894 118.047 17.8465 119.258 18.7605C120.492 19.6517 121.269 20.9885 121.589 22.7709L121.006 22.5309C121.486 20.9999 122.389 19.766 123.714 18.8291C125.04 17.8693 126.651 17.3894 128.547 17.3894ZM150.706 35.5561C149.175 35.5561 147.849 35.2818 146.729 34.7334C145.61 34.1621 144.741 33.3166 144.124 32.1969C143.53 31.0544 143.233 29.649 143.233 27.9809V17.5266H144.947V27.8438C144.947 29.8547 145.461 31.3857 146.49 32.4369C147.518 33.488 148.969 34.0136 150.843 34.0136C152.191 34.0136 153.356 33.728 154.339 33.1567C155.321 32.5854 156.076 31.7856 156.601 30.7573C157.127 29.7062 157.389 28.4722 157.389 27.0555V17.5266H159.103V35.4189H157.458V30.4488L157.698 31.0315C157.172 32.4255 156.293 33.5337 155.059 34.3564C153.848 35.1562 152.397 35.5561 150.706 35.5561ZM175.794 17.3894C177.257 17.3894 178.525 17.6751 179.599 18.2464C180.696 18.7948 181.541 19.6403 182.135 20.7828C182.752 21.9025 183.061 23.2964 183.061 24.9646V35.4189H181.347V25.1017C181.347 23.0908 180.833 21.5598 179.805 20.5086C178.799 19.4575 177.382 18.9319 175.554 18.9319C174.16 18.9319 172.949 19.2175 171.921 19.7888C170.893 20.3601 170.104 21.1599 169.556 22.1882C169.03 23.2165 168.767 24.4504 168.767 25.89V35.4189H167.054V17.5266H168.699V22.4967L168.459 21.9482C169.007 20.5315 169.91 19.4232 171.167 18.6234C172.424 17.8008 173.966 17.3894 175.794 17.3894Z" fill="white"/>
<path d="M70.3106 34.9048L70.1162 35.4776L70.1193 35.4786L70.3106 34.9048ZM67.3285 33.2595L66.8041 32.958L66.5651 33.3737L66.9153 33.7012L67.3285 33.2595ZM68.1169 31.8885L68.513 31.4314L67.9583 30.9506L67.5925 31.5869L68.1169 31.8885ZM70.859 33.4309L70.6441 33.9964L70.6541 34L70.859 33.4309ZM78.6055 33.1224L78.2426 32.6385L78.2426 32.6385L78.6055 33.1224ZM79.1882 28.9749L78.7491 29.3909L78.7603 29.4028L78.7722 29.4141L79.1882 28.9749ZM77.5086 27.9809L77.3229 28.5566H77.3229L77.5086 27.9809ZM75.1778 27.4325L75.0654 28.0268L75.0732 28.0283L75.081 28.0296L75.1778 27.4325ZM72.6414 26.9183L72.7692 26.3271L72.6414 26.9183ZM70.3106 26.13L70.574 25.5855L70.574 25.5855L70.3106 26.13ZM68.5967 24.7246L68.0934 25.0602L68.1007 25.071L68.1084 25.0815L68.5967 24.7246ZM68.7338 19.8231L68.2354 19.4804L68.7338 19.8231ZM70.9961 18.075L71.2359 18.6304L71.2464 18.6256L70.9961 18.075ZM78.1256 17.8693L77.9595 18.4509L77.9625 18.4518L78.1256 17.8693ZM80.902 19.1376L81.4264 19.4391L81.6947 18.9725L81.2625 18.6518L80.902 19.1376ZM80.1137 20.5086L79.7484 20.9908L80.2958 21.4054L80.638 20.8101L80.1137 20.5086ZM70.8933 19.8574L70.5219 19.3799L70.5154 19.385L70.8933 19.8574ZM70.3106 24.0734L69.861 24.478L69.8716 24.4899L69.8828 24.5011L70.3106 24.0734ZM72.0244 25.1017L71.8221 25.6717L71.8304 25.6747L71.8387 25.6774L72.0244 25.1017ZM74.3552 25.6844L74.2428 26.2787L74.2505 26.2802L74.2584 26.2815L74.3552 25.6844ZM76.8917 26.1643L76.7638 26.7555L76.8917 26.1643ZM79.2225 26.9526L78.959 27.4971L78.9662 27.5006L78.9735 27.5039L79.2225 26.9526ZM80.902 28.3237L80.4047 28.668L80.4123 28.679L80.4205 28.6897L80.902 28.3237ZM80.7307 33.2252L80.2466 32.8622L80.2395 32.8722L80.7307 33.2252ZM78.3656 34.9391L78.586 35.5024L78.3656 34.9391ZM74.4923 35.5561V34.9512C73.0667 34.9512 71.7378 34.743 70.5018 34.331L70.3106 34.9048L70.1193 35.4786C71.4883 35.935 72.9473 36.1609 74.4923 36.1609V35.5561ZM70.3106 34.9048L70.5049 34.332C69.2768 33.9153 68.3677 33.4034 67.7417 32.8178L67.3285 33.2595L66.9153 33.7012C67.706 34.441 68.785 35.026 70.1162 35.4776L70.3106 34.9048ZM67.3285 33.2595L67.8529 33.561L68.6412 32.19L68.1169 31.8885L67.5925 31.5869L66.8041 32.958L67.3285 33.2595ZM68.1169 31.8885L67.7207 32.3456C68.4749 32.9992 69.4568 33.5452 70.6441 33.9963L70.859 33.4309L71.0739 32.8655C69.976 32.4483 69.1299 31.966 68.513 31.4314L68.1169 31.8885ZM70.859 33.4309L70.6541 34C71.8681 34.4371 73.172 34.6528 74.5609 34.6528V34.0479V33.443C73.299 33.443 72.135 33.2474 71.0639 32.8618L70.859 33.4309ZM74.5609 34.0479V34.6528C76.4714 34.6528 77.9849 34.344 78.9684 33.6063L78.6055 33.1224L78.2426 32.6385C77.5808 33.1348 76.3979 33.443 74.5609 33.443V34.0479ZM78.6055 33.1224L78.9684 33.6063C79.9393 32.8782 80.4443 31.8896 80.4443 30.6888H79.8395H79.2346C79.2346 31.4988 78.917 32.1327 78.2426 32.6385L78.6055 33.1224ZM79.8395 30.6888H80.4443C80.4443 29.8311 80.185 29.0861 79.6042 28.5358L79.1882 28.9749L78.7722 29.4141C79.0597 29.6865 79.2346 30.0839 79.2346 30.6888H79.8395ZM79.1882 28.9749L79.6273 28.5589C79.1312 28.0352 78.476 27.6574 77.6943 27.4052L77.5086 27.9809L77.3229 28.5566C77.9581 28.7615 78.4226 29.0463 78.7491 29.3909L79.1882 28.9749ZM77.5086 27.9809L77.6944 27.4052C76.953 27.1661 76.1459 26.9767 75.2747 26.8354L75.1778 27.4325L75.081 28.0296C75.9008 28.1625 76.6476 28.3387 77.3229 28.5566L77.5086 27.9809ZM75.1778 27.4325L75.2903 26.8382C74.45 26.6792 73.6096 26.5088 72.7692 26.3271L72.6414 26.9183L72.5135 27.5096C73.3641 27.6935 74.2147 27.8659 75.0654 28.0268L75.1778 27.4325ZM72.6414 26.9183L72.7692 26.3271C71.966 26.1535 71.2352 25.9054 70.574 25.5855L70.3106 26.13L70.0471 26.6745C70.8027 27.0401 71.6257 27.3176 72.5135 27.5096L72.6414 26.9183ZM70.3106 26.13L70.574 25.5855C69.9485 25.2828 69.4568 24.8763 69.0851 24.3678L68.5967 24.7246L68.1084 25.0815C68.605 25.7612 69.2559 26.2916 70.0471 26.6745L70.3106 26.13ZM68.5967 24.7246L69.1 24.3891C68.7747 23.9011 68.5846 23.2184 68.5846 22.291H67.9798H67.3749C67.3749 23.3745 67.5961 24.3142 68.0934 25.0602L68.5967 24.7246ZM67.9798 22.291H68.5846C68.5846 21.4954 68.8011 20.793 69.2323 20.1658L68.7338 19.8231L68.2354 19.4804C67.6612 20.3156 67.3749 21.2585 67.3749 22.291H67.9798ZM68.7338 19.8231L69.2323 20.1658C69.6569 19.5481 70.3105 19.0299 71.2359 18.6303L70.9961 18.075L70.7563 17.5197C69.6708 17.9884 68.8162 18.6356 68.2354 19.4804L68.7338 19.8231ZM70.9961 18.075L71.2464 18.6256C72.15 18.2149 73.315 17.9943 74.7665 17.9943V17.3894V16.7846C73.2017 16.7846 71.853 17.021 70.7458 17.5243L70.9961 18.075ZM74.7665 17.3894V17.9943C75.8278 17.9943 76.8916 18.1458 77.9595 18.4509L78.1256 17.8693L78.2918 17.2877C77.1202 16.953 75.9446 16.7846 74.7665 16.7846V17.3894ZM78.1256 17.8693L77.9625 18.4518C79.057 18.7582 79.9091 19.1541 80.5416 19.6233L80.902 19.1376L81.2625 18.6518C80.4782 18.0699 79.4794 17.6202 78.2887 17.2868L78.1256 17.8693ZM80.902 19.1376L80.3777 18.836L79.5893 20.2071L80.1137 20.5086L80.638 20.8101L81.4264 19.4391L80.902 19.1376ZM80.1137 20.5086L80.4789 20.0265C79.661 19.4068 78.7443 18.9615 77.7339 18.6904L77.5772 19.2747L77.4205 19.8589C78.2839 20.0905 79.0582 20.4679 79.7484 20.9908L80.1137 20.5086ZM77.5772 19.2747L77.7339 18.6904C76.7465 18.4255 75.7455 18.2927 74.7322 18.2927V18.8976V19.5025C75.6385 19.5025 76.5341 19.6211 77.4205 19.8589L77.5772 19.2747ZM74.7322 18.8976V18.2927C72.943 18.2927 71.501 18.6183 70.5219 19.3799L70.8933 19.8574L71.2646 20.3348C71.9308 19.8167 73.0481 19.5025 74.7322 19.5025V18.8976ZM70.8933 19.8574L70.5154 19.385C69.5832 20.1308 69.0887 21.0995 69.0887 22.2567H69.6936H70.2985C70.2985 21.4945 70.6037 20.8636 71.2711 20.3297L70.8933 19.8574ZM69.6936 22.2567H69.0887C69.0887 23.1248 69.3283 23.8862 69.861 24.478L70.3106 24.0734L70.7602 23.6687C70.4702 23.3466 70.2985 22.8968 70.2985 22.2567H69.6936ZM70.3106 24.0734L69.8828 24.5011C70.3933 25.0115 71.0476 25.3969 71.8221 25.6717L72.0244 25.1017L72.2267 24.5316C71.5844 24.3037 71.0962 24.0036 70.7383 23.6457L70.3106 24.0734ZM72.0244 25.1017L71.8387 25.6774C72.5744 25.9147 73.3762 26.1148 74.2428 26.2787L74.3552 25.6844L74.4676 25.09C73.6432 24.9341 72.8911 24.7457 72.2101 24.526L72.0244 25.1017ZM74.3552 25.6844L74.2584 26.2815C75.0934 26.4169 75.9285 26.5749 76.7638 26.7555L76.8917 26.1643L77.0195 25.573C76.1638 25.388 75.308 25.2261 74.452 25.0873L74.3552 25.6844ZM76.8917 26.1643L76.7638 26.7555C77.567 26.9291 78.2979 27.1772 78.959 27.4971L79.2225 26.9526L79.4859 26.4081C78.7303 26.0425 77.9073 25.765 77.0195 25.573L76.8917 26.1643ZM79.2225 26.9526L78.9735 27.5039C79.5897 27.7822 80.0606 28.1709 80.4047 28.668L80.902 28.3237L81.3994 27.9794C80.9208 27.2882 80.272 26.7629 79.4714 26.4014L79.2225 26.9526ZM80.902 28.3237L80.4205 28.6897C80.7497 29.1229 80.9484 29.756 80.9484 30.6545H81.5533H82.1582C82.1582 29.5878 81.9227 28.667 81.3836 27.9577L80.902 28.3237ZM81.5533 30.6545H80.9484C80.9484 31.5166 80.7106 32.2438 80.2467 32.8623L80.7307 33.2252L81.2146 33.5882C81.8475 32.7442 82.1582 31.7575 82.1582 30.6545H81.5533ZM80.7307 33.2252L80.2395 32.8722C79.7974 33.4873 79.1151 33.9962 78.1451 34.3758L78.3656 34.9391L78.586 35.5024C79.7183 35.0593 80.6128 34.4256 81.2218 33.5783L80.7307 33.2252ZM78.3656 34.9391L78.1451 34.3758C77.1844 34.7517 75.9731 34.9512 74.4923 34.9512V35.5561V36.1609C76.0736 36.1609 77.4444 35.9491 78.586 35.5024L78.3656 34.9391ZM87.0217 35.4189H86.4169V36.0238H87.0217V35.4189ZM87.0217 17.5266V16.9217H86.4169V17.5266H87.0217ZM88.7356 17.5266H89.3405V16.9217H88.7356V17.5266ZM88.7356 35.4189V36.0238H89.3405V35.4189H88.7356ZM86.8846 12.7621L86.4569 13.1898L86.4569 13.1898L86.8846 12.7621ZM86.8846 10.8083L86.4569 10.3806L86.4569 10.3806L86.8846 10.8083ZM88.8727 10.8083L88.4268 11.2171L88.4446 11.2365L88.464 11.2542L88.8727 10.8083ZM88.8727 12.7621L88.445 12.3344L88.4357 12.3437L88.4268 12.3534L88.8727 12.7621ZM87.0217 35.4189H87.6266V17.5266H87.0217H86.4169V35.4189H87.0217ZM87.0217 17.5266V18.1314H88.7356V17.5266V16.9217H87.0217V17.5266ZM88.7356 17.5266H88.1307V35.4189H88.7356H89.3405V17.5266H88.7356ZM88.7356 35.4189V34.8141H87.0217V35.4189V36.0238H88.7356V35.4189ZM87.8787 13.1734V12.5685C87.6503 12.5685 87.4729 12.4949 87.3124 12.3344L86.8846 12.7621L86.4569 13.1898C86.8448 13.5777 87.3301 13.7783 87.8787 13.7783V13.1734ZM86.8846 12.7621L87.3124 12.3344C87.1439 12.166 87.0782 11.9971 87.0782 11.8024H86.4733H85.8684C85.8684 12.3389 86.0769 12.8098 86.4569 13.1898L86.8846 12.7621ZM86.4733 11.8024H87.0782C87.0782 11.574 87.1518 11.3966 87.3124 11.236L86.8846 10.8083L86.4569 10.3806C86.0691 10.7685 85.8684 11.2538 85.8684 11.8024H86.4733ZM86.8846 10.8083L87.3124 11.2361C87.4729 11.0755 87.6503 11.0019 87.8787 11.0019V10.397V9.79213C87.3301 9.79213 86.8448 9.99275 86.4569 10.3806L86.8846 10.8083ZM87.8787 10.397V11.0019C88.1404 11.0019 88.3028 11.0818 88.4268 11.2171L88.8727 10.8083L89.3186 10.3996C88.9398 9.98642 88.4396 9.79213 87.8787 9.79213V10.397ZM88.8727 10.8083L88.464 11.2542C88.6071 11.3854 88.6791 11.5407 88.6791 11.7681H89.284H89.8889C89.8889 11.2185 89.6867 10.734 89.2814 10.3624L88.8727 10.8083ZM89.284 11.7681H88.6791C88.6791 11.9964 88.6055 12.1738 88.445 12.3344L88.8727 12.7621L89.3004 13.1898C89.6883 12.8019 89.8889 12.3167 89.8889 11.7681H89.284ZM88.8727 12.7621L88.4268 12.3534C88.3028 12.4886 88.1404 12.5685 87.8787 12.5685V13.1734V13.7783C88.4396 13.7783 88.9398 13.584 89.3186 13.1708L88.8727 12.7621ZM96.6446 35.4189H96.0398V36.0238H96.6446V35.4189ZM96.6446 9.9857V9.38081H96.0398V9.9857H96.6446ZM98.3585 9.9857H98.9634V9.38081H98.3585V9.9857ZM98.3585 35.4189V36.0238H98.9634V35.4189H98.3585ZM96.6446 35.4189H97.2495V9.9857H96.6446H96.0398V35.4189H96.6446ZM96.6446 9.9857V10.5906H98.3585V9.9857V9.38081H96.6446V9.9857ZM98.3585 9.9857H97.7536V35.4189H98.3585H98.9634V9.9857H98.3585ZM98.3585 35.4189V34.8141H96.6446V35.4189V36.0238H98.3585V35.4189ZM132.283 18.2464L131.995 18.7778L132.001 18.7815L132.008 18.7851L132.283 18.2464ZM134.786 20.7828L134.249 21.0619L134.251 21.0663L134.786 20.7828ZM135.677 35.4189V36.0238H136.282V35.4189H135.677ZM133.963 35.4189H133.358V36.0238H133.963V35.4189ZM124.88 19.7888L125.184 20.3117L124.88 19.7888ZM122.617 22.1882L123.156 22.4635L122.617 22.1882ZM121.829 35.4189V36.0238H122.434V35.4189H121.829ZM120.115 35.4189H119.51V36.0238H120.115V35.4189ZM118.641 20.5086L118.2 20.9217L118.641 20.5086ZM111.032 19.7888L110.728 19.2659L111.032 19.7888ZM108.77 22.1882L109.308 22.4635L108.77 22.1882ZM107.981 35.4189V36.0238H108.586V35.4189H107.981ZM106.268 35.4189H105.663V36.0238H106.268V35.4189ZM106.268 17.5266V16.9217H105.663V17.5266H106.268ZM107.913 17.5266H108.518V16.9217H107.913V17.5266ZM107.913 22.4624L107.359 22.7048L108.518 22.4624H107.913ZM107.673 21.914L107.107 21.7006L107.02 21.9309L107.119 22.1564L107.673 21.914ZM110.312 18.6234L110.641 19.131L110.648 19.1267L110.312 18.6234ZM119.258 18.7605L118.894 19.2434L118.904 19.2509L119.258 18.7605ZM121.589 22.7709L121.359 23.3302L122.38 23.7505L122.185 22.664L121.589 22.7709ZM121.006 22.5309L120.429 22.35L120.263 22.8791L120.776 23.0903L121.006 22.5309ZM123.714 18.8291L124.064 19.323L124.069 19.319L123.714 18.8291ZM128.547 17.3894V17.9943C129.906 17.9943 131.049 18.2636 131.995 18.7778L132.283 18.2464L132.572 17.7149C131.416 17.0866 130.067 16.7846 128.547 16.7846V17.3894ZM132.283 18.2464L132.008 18.7851C132.963 19.2723 133.709 20.023 134.249 21.0619L134.786 20.7828L135.322 20.5038C134.674 19.2576 133.752 18.3173 132.559 17.7076L132.283 18.2464ZM134.786 20.7828L134.251 21.0663C134.787 22.0755 135.072 23.3652 135.072 24.9646H135.677H136.282C136.282 23.2277 135.973 21.7296 135.32 20.4993L134.786 20.7828ZM135.677 24.9646H135.072V35.4189H135.677H136.282V24.9646H135.677ZM135.677 35.4189V34.8141H133.963V35.4189V36.0238H135.677V35.4189ZM133.963 35.4189H134.568V25.1017H133.963H133.358V35.4189H133.963ZM133.963 25.1017H134.568C134.568 22.9987 134.054 21.2967 132.931 20.0956L132.489 20.5086L132.047 20.9217C132.89 21.8229 133.358 23.1829 133.358 25.1017H133.963ZM132.489 20.5086L132.931 20.0956C131.809 18.8955 130.263 18.327 128.376 18.327V18.9319V19.5368C130.008 19.5368 131.204 20.0194 132.047 20.9217L132.489 20.5086ZM128.376 18.9319V18.327C126.941 18.327 125.667 18.6317 124.576 19.2659L124.88 19.7888L125.184 20.3117C126.058 19.8034 127.115 19.5368 128.376 19.5368V18.9319ZM124.88 19.7888L124.576 19.2659C123.491 19.8965 122.656 20.783 122.079 21.9129L122.617 22.1882L123.156 22.4635C123.63 21.5367 124.303 20.8237 125.184 20.3117L124.88 19.7888ZM122.617 22.1882L122.079 21.9129C121.5 23.0449 121.224 24.3778 121.224 25.89H121.829H122.434C122.434 24.523 122.683 23.3881 123.156 22.4635L122.617 22.1882ZM121.829 25.89H121.224V35.4189H121.829H122.434V25.89H121.829ZM121.829 35.4189V34.8141H120.115V35.4189V36.0238H121.829V35.4189ZM120.115 35.4189H120.72V25.1017H120.115H119.51V35.4189H120.115ZM120.115 25.1017H120.72C120.72 22.9987 120.206 21.2967 119.083 20.0956L118.641 20.5086L118.2 20.9217C119.042 21.8229 119.51 23.1829 119.51 25.1017H120.115ZM118.641 20.5086L119.083 20.0956C117.962 18.8955 116.415 18.327 114.528 18.327V18.9319V19.5368C116.16 19.5368 117.356 20.0194 118.2 20.9217L118.641 20.5086ZM114.528 18.9319V18.327C113.093 18.327 111.819 18.6317 110.728 19.2659L111.032 19.7888L111.336 20.3117C112.21 19.8034 113.267 19.5368 114.528 19.5368V18.9319ZM111.032 19.7888L110.728 19.2659C109.643 19.8965 108.809 20.783 108.231 21.9129L108.77 22.1882L109.308 22.4635C109.782 21.5367 110.455 20.8237 111.336 20.3117L111.032 19.7888ZM108.77 22.1882L108.231 21.9129C107.653 23.0449 107.376 24.3778 107.376 25.89H107.981H108.586C108.586 24.523 108.836 23.3881 109.308 22.4635L108.77 22.1882ZM107.981 25.89H107.376V35.4189H107.981H108.586V25.89H107.981ZM107.981 35.4189V34.8141H106.268V35.4189V36.0238H107.981V35.4189ZM106.268 35.4189H106.872V17.5266H106.268H105.663V35.4189H106.268ZM106.268 17.5266V18.1314H107.913V17.5266V16.9217H106.268V17.5266ZM107.913 17.5266H107.308V22.4624H107.913H108.518V17.5266H107.913ZM107.913 22.4624L108.467 22.2199L108.227 21.6715L107.673 21.914L107.119 22.1564L107.359 22.7048L107.913 22.4624ZM107.673 21.914L108.239 22.1274C108.72 20.8526 109.517 19.8596 110.641 19.131L110.312 18.6234L109.983 18.1158C108.639 18.9868 107.677 20.1875 107.107 21.7006L107.673 21.914ZM110.312 18.6234L110.648 19.1267C111.766 18.381 113.13 17.9943 114.768 17.9943V17.3894V16.7846C112.933 16.7846 111.326 17.2205 109.977 18.1201L110.312 18.6234ZM114.768 17.3894V17.9943C116.443 17.9943 117.805 18.4217 118.894 19.2433L119.258 18.7605L119.623 18.2777C118.289 17.2712 116.658 16.7846 114.768 16.7846V17.3894ZM119.258 18.7605L118.904 19.2509C119.988 20.0333 120.696 21.2184 120.994 22.8777L121.589 22.7709L122.185 22.664C121.843 20.7586 120.997 19.2701 119.613 18.2701L119.258 18.7605ZM121.589 22.7709L121.819 22.2116L121.237 21.9716L121.006 22.5309L120.776 23.0903L121.359 23.3302L121.589 22.7709ZM121.006 22.5309L121.584 22.7118C122.023 21.3089 122.845 20.1843 124.063 19.323L123.714 18.8291L123.365 18.3351C121.933 19.3476 120.949 20.6909 120.429 22.35L121.006 22.5309ZM123.714 18.8291L124.069 19.319C125.275 18.4454 126.757 17.9943 128.547 17.9943V17.3894V16.7846C126.544 16.7846 124.804 17.2932 123.36 18.3391L123.714 18.8291ZM146.729 34.7334L146.455 35.2723L146.463 35.2766L146.729 34.7334ZM144.124 32.1969L143.588 32.476L143.591 32.4825L143.595 32.4889L144.124 32.1969ZM143.233 17.5266V16.9217H142.628V17.5266H143.233ZM144.947 17.5266H145.552V16.9217H144.947V17.5266ZM146.49 32.4369L146.922 32.0139L146.49 32.4369ZM154.339 33.1567L154.643 33.6796L154.339 33.1567ZM156.601 30.7573L157.14 31.0326L157.142 31.0278L156.601 30.7573ZM157.389 17.5266V16.9217H156.785V17.5266H157.389ZM159.103 17.5266H159.708V16.9217H159.103V17.5266ZM159.103 35.4189V36.0238H159.708V35.4189H159.103ZM157.458 35.4189H156.853V36.0238H157.458V35.4189ZM157.458 30.4488L158.017 30.2185L156.853 30.4488H157.458ZM157.698 31.0315L158.264 31.2449L158.348 31.0218L158.257 30.8012L157.698 31.0315ZM155.059 34.3564L155.392 34.8611L155.394 34.8597L155.059 34.3564ZM150.706 35.5561V34.9512C149.246 34.9512 148.016 34.6899 146.996 34.1902L146.729 34.7334L146.463 35.2766C147.683 35.8738 149.103 36.1609 150.706 36.1609V35.5561ZM146.729 34.7334L147.004 34.1946C145.994 33.6793 145.214 32.9207 144.654 31.905L144.124 32.1969L143.595 32.4889C144.269 33.7126 145.225 34.645 146.455 35.2722L146.729 34.7334ZM144.124 32.1969L144.661 31.9179C144.123 30.8832 143.838 29.5797 143.838 27.9809H143.233H142.628C142.628 29.7184 142.938 31.2256 143.588 32.476L144.124 32.1969ZM143.233 27.9809H143.838V17.5266H143.233H142.628V27.9809H143.233ZM143.233 17.5266V18.1314H144.947V17.5266V16.9217H143.233V17.5266ZM144.947 17.5266H144.342V27.8438H144.947H145.552V17.5266H144.947ZM144.947 27.8438H144.342C144.342 29.9535 144.883 31.6594 146.057 32.8599L146.49 32.4369L146.922 32.0139C146.04 31.1121 145.552 29.7559 145.552 27.8438H144.947ZM146.49 32.4369L146.057 32.8599C147.228 34.0571 148.853 34.6185 150.843 34.6185V34.0136V33.4087C149.085 33.4087 147.807 32.9189 146.922 32.0139L146.49 32.4369ZM150.843 34.0136V34.6185C152.278 34.6185 153.552 34.3138 154.643 33.6796L154.339 33.1567L154.035 32.6338C153.16 33.1421 152.104 33.4087 150.843 33.4087V34.0136ZM154.339 33.1567L154.643 33.6796C155.728 33.049 156.562 32.1625 157.14 31.0326L156.601 30.7573L156.063 30.482C155.589 31.4088 154.915 32.1218 154.035 32.6338L154.339 33.1567ZM156.601 30.7573L157.142 31.0278C157.717 29.8772 157.994 28.547 157.994 27.0555H157.389H156.785C156.785 28.3974 156.536 29.5352 156.06 30.4868L156.601 30.7573ZM157.389 27.0555H157.994V17.5266H157.389H156.785V27.0555H157.389ZM157.389 17.5266V18.1314H159.103V17.5266V16.9217H157.389V17.5266ZM159.103 17.5266H158.498V35.4189H159.103H159.708V17.5266H159.103ZM159.103 35.4189V34.8141H157.458V35.4189V36.0238H159.103V35.4189ZM157.458 35.4189H158.063V30.4488H157.458H156.853V35.4189H157.458ZM157.458 30.4488L156.899 30.6791L157.139 31.2618L157.698 31.0315L158.257 30.8012L158.017 30.2185L157.458 30.4488ZM157.698 31.0315L157.132 30.8181C156.651 32.0943 155.851 33.1009 154.723 33.8531L155.059 34.3564L155.394 34.8597C156.734 33.9665 157.694 32.7566 158.264 31.2449L157.698 31.0315ZM155.059 34.3564L154.725 33.8516C153.629 34.5759 152.298 34.9512 150.706 34.9512V35.5561V36.1609C152.495 36.1609 154.067 35.7364 155.392 34.8611L155.059 34.3564ZM179.599 18.2464L179.315 18.7804L179.322 18.784L179.328 18.7874L179.599 18.2464ZM182.135 20.7828L181.599 21.0619L181.602 21.0684L181.606 21.0747L182.135 20.7828ZM183.061 35.4189V36.0238H183.666V35.4189H183.061ZM181.347 35.4189H180.742V36.0238H181.347V35.4189ZM179.805 20.5086L179.367 20.9268L179.372 20.9316L179.805 20.5086ZM169.556 22.1882L169.022 21.9035L169.017 21.9129L169.556 22.1882ZM168.767 35.4189V36.0238H169.372V35.4189H168.767ZM167.054 35.4189H166.449V36.0238H167.054V35.4189ZM167.054 17.5266V16.9217H166.449V17.5266H167.054ZM168.699 17.5266H169.304V16.9217H168.699V17.5266ZM168.699 22.4967L168.145 22.7391L169.304 22.4967H168.699ZM168.459 21.9482L167.895 21.7299L167.805 21.9623L167.905 22.1907L168.459 21.9482ZM171.167 18.6234L171.492 19.1338L171.498 19.1295L171.167 18.6234ZM175.794 17.3894V17.9943C177.177 17.9943 178.344 18.2642 179.315 18.7804L179.599 18.2464L179.883 17.7123C178.705 17.086 177.336 16.7846 175.794 16.7846V17.3894ZM179.599 18.2464L179.328 18.7874C180.305 19.2758 181.06 20.0265 181.599 21.0619L182.135 20.7828L182.672 20.5038C182.022 19.254 181.086 18.3138 179.869 17.7053L179.599 18.2464ZM182.135 20.7828L181.606 21.0747C182.161 22.0819 182.456 23.3683 182.456 24.9646H183.061H183.666C183.666 23.2246 183.344 21.7232 182.665 20.4909L182.135 20.7828ZM183.061 24.9646H182.456V35.4189H183.061H183.666V24.9646H183.061ZM183.061 35.4189V34.8141H181.347V35.4189V36.0238H183.061V35.4189ZM181.347 35.4189H181.952V25.1017H181.347H180.742V35.4189H181.347ZM181.347 25.1017H181.952C181.952 22.992 181.411 21.2861 180.237 20.0856L179.805 20.5086L179.372 20.9316C180.254 21.8334 180.742 23.1896 180.742 25.1017H181.347ZM179.805 20.5086L180.242 20.0905C179.094 18.891 177.502 18.327 175.554 18.327V18.9319V19.5368C177.262 19.5368 178.504 20.0239 179.367 20.9267L179.805 20.5086ZM175.554 18.9319V18.327C174.077 18.327 172.761 18.6303 171.627 19.26L171.921 19.7888L172.215 20.3176C173.138 19.8047 174.244 19.5368 175.554 19.5368V18.9319ZM171.921 19.7888L171.627 19.26C170.498 19.8873 169.626 20.7714 169.022 21.9035L169.556 22.1882L170.09 22.4728C170.583 21.5483 171.287 20.8328 172.215 20.3176L171.921 19.7888ZM169.556 22.1882L169.017 21.9129C168.439 23.0449 168.163 24.3778 168.163 25.89H168.767H169.372C169.372 24.523 169.622 23.3881 170.094 22.4635L169.556 22.1882ZM168.767 25.89H168.163V35.4189H168.767H169.372V25.89H168.767ZM168.767 35.4189V34.8141H167.054V35.4189V36.0238H168.767V35.4189ZM167.054 35.4189H167.659V17.5266H167.054H166.449V35.4189H167.054ZM167.054 17.5266V18.1314H168.699V17.5266V16.9217H167.054V17.5266ZM168.699 17.5266H168.094V22.4967H168.699H169.304V17.5266H168.699ZM168.699 22.4967L169.253 22.2542L169.013 21.7058L168.459 21.9482L167.905 22.1907L168.145 22.7391L168.699 22.4967ZM168.459 21.9482L169.023 22.1666C169.526 20.8676 170.346 19.8628 171.492 19.1337L171.167 18.6234L170.842 18.1131C169.474 18.9836 168.489 20.1953 167.895 21.7299L168.459 21.9482ZM171.167 18.6234L171.498 19.1295C172.637 18.3841 174.058 17.9943 175.794 17.9943V17.3894V16.7846C173.874 16.7846 172.21 17.2174 170.836 18.1173L171.167 18.6234Z" fill="white" mask="url(#path-1-outside-1_463_973)"/>
<mask id="path-3-outside-2_463_973" maskUnits="userSpaceOnUse" x="-0.79834" y="-0.798828" width="58" height="48" fill="black">
<rect fill="white" x="-0.79834" y="-0.798828" width="58" height="48"/>
<path d="M47.8255 23.6731C47.6183 23.6731 47.4507 23.5055 47.4507 23.2984C47.4507 23.0912 47.6183 22.9236 47.8255 22.9236L55.7581 22.9377C55.9653 22.9377 56.1329 23.1053 56.1329 23.3125C56.1329 23.5197 55.9653 23.6873 55.7581 23.6873L47.8255 23.6731ZM28.0627 7.17704C28.9215 7.17704 29.7003 6.82862 30.2625 6.2655C30.8256 5.70239 31.174 4.92457 31.174 4.06577C31.174 3.20697 30.8256 2.42821 30.2625 1.86604C29.6994 1.30292 28.9215 0.954505 28.0627 0.954505C27.2039 0.954505 26.4252 1.30292 25.863 1.86604C25.2999 2.42915 24.9515 3.20697 24.9515 4.06577C24.9515 4.92457 25.2999 5.70333 25.863 6.2655C26.4261 6.82862 27.2039 7.17704 28.0627 7.17704ZM30.7955 6.79849C30.0958 7.49814 29.1296 7.93037 28.0627 7.93037C26.9958 7.93037 26.0297 7.49814 25.33 6.79849C24.6304 6.09883 24.1981 5.13268 24.1981 4.06577C24.1981 2.99886 24.6304 2.03271 25.33 1.33305C26.0297 0.633397 26.9958 0.201172 28.0627 0.201172C29.1296 0.201172 30.0958 0.633397 30.7955 1.33305C31.4951 2.03271 31.9273 2.99886 31.9273 4.06577C31.9273 5.13268 31.4951 6.09883 30.7955 6.79849ZM17.4624 13.5107C17.4624 14.5898 17.9003 15.5673 18.6075 16.2745C19.3147 16.9817 20.2921 17.4195 21.3713 17.4195C22.0163 17.4195 22.6227 17.2651 23.1548 16.9911C23.7094 16.7067 24.1878 16.2924 24.5494 15.7876C25.3696 14.6454 26.1238 14.6586 27.4817 14.6821C27.6343 14.6849 27.7972 14.6878 28.0985 14.6878C28.3999 14.6878 28.5628 14.6849 28.7153 14.6821C30.0732 14.6586 30.8275 14.6454 31.6477 15.7876C32.0093 16.2914 32.4876 16.7058 33.0423 16.9911C33.5753 17.2651 34.1817 17.4195 34.8258 17.4195C35.9049 17.4195 36.8824 16.9817 37.5896 16.2745C38.2968 15.5673 38.7346 14.5898 38.7346 13.5107C38.7346 12.4315 38.2968 11.4541 37.5896 10.7469C36.8824 10.0397 35.9049 9.60183 34.8258 9.60183C34.1807 9.60183 33.5743 9.75626 33.0423 10.0303C32.4876 10.3147 32.0093 10.729 31.6477 11.2337C30.8275 12.376 30.0732 12.3628 28.7153 12.3393C28.5628 12.3364 28.3999 12.3336 28.0985 12.3336C27.7972 12.3336 27.6343 12.3364 27.4817 12.3393C26.1238 12.3628 25.3696 12.376 24.5494 11.2337C24.1878 10.7299 23.7094 10.3156 23.1548 10.0303C22.6218 9.75626 22.0154 9.60183 21.3713 9.60183C20.2921 9.60183 19.3147 10.0397 18.6075 10.7469C17.9003 11.4541 17.4624 12.4315 17.4624 13.5107ZM18.0745 16.8075C17.2308 15.9637 16.7091 14.7979 16.7091 13.5107C16.7091 12.2234 17.2308 11.0576 18.0745 10.2139C18.9182 9.37018 20.084 8.84849 21.3713 8.84849C22.135 8.84849 22.8572 9.034 23.4966 9.3617C24.1586 9.70164 24.7283 10.1951 25.1586 10.794C25.75 11.617 26.364 11.6066 27.4695 11.5878C27.704 11.584 27.9544 11.5793 28.0976 11.5793C28.2407 11.5793 28.4912 11.584 28.7257 11.5878C29.8312 11.6066 30.4452 11.6179 31.0365 10.794C31.4669 10.1951 32.0366 9.70164 32.6986 9.3617C33.338 9.03306 34.0602 8.84849 34.8239 8.84849C36.1112 8.84849 37.2769 9.37018 38.1207 10.2139C38.9644 11.0576 39.4861 12.2234 39.4861 13.5107C39.4861 14.7979 38.9644 15.9637 38.1207 16.8075C37.2769 17.6512 36.1112 18.1729 34.8239 18.1729C34.0602 18.1729 33.338 17.9874 32.6986 17.6597C32.0366 17.3197 31.4669 16.8263 31.0365 16.2274C30.4452 15.4044 29.8312 15.4147 28.7257 15.4336C28.4912 15.4373 28.2407 15.442 28.0976 15.442C27.9544 15.442 27.704 15.4373 27.4695 15.4336C26.364 15.4147 25.75 15.4034 25.1586 16.2274C24.7283 16.8263 24.1586 17.3197 23.4966 17.6597C22.8572 17.9883 22.135 18.1729 21.3713 18.1729C20.084 18.1729 18.9182 17.6512 18.0745 16.8075ZM28.0627 38.8462C29.1296 38.8462 30.0958 39.2784 30.7955 39.9781C31.4951 40.6778 31.9273 41.6439 31.9273 42.7108C31.9273 43.7777 31.4951 44.7439 30.7955 45.4435C30.0958 46.1432 29.1296 46.5754 28.0627 46.5754C26.9958 46.5754 26.0297 46.1432 25.33 45.4435C24.6304 44.7439 24.1981 43.7777 24.1981 42.7108C24.1981 41.6439 24.6304 40.6778 25.33 39.9781C26.0297 39.2784 26.9958 38.8462 28.0627 38.8462ZM30.2625 40.5111C29.6994 39.948 28.9215 39.5995 28.0627 39.5995C27.2039 39.5995 26.4252 39.948 25.863 40.5111C25.2999 41.0742 24.9515 41.852 24.9515 42.7108C24.9515 43.5696 25.2999 44.3484 25.863 44.9105C26.4261 45.4737 27.2039 45.8221 28.0627 45.8221C28.9215 45.8221 29.7003 45.4737 30.2625 44.9105C30.8256 44.3474 31.174 43.5696 31.174 42.7108C31.174 41.852 30.8256 41.0733 30.2625 40.5111ZM45.5052 23.2871C45.5052 22.2079 45.0673 21.2305 44.3602 20.5233C43.653 19.8161 42.6755 19.3782 41.5964 19.3782C40.9513 19.3782 40.3449 19.5326 39.8129 19.8067C39.2582 20.091 38.7798 20.5054 38.4182 21.0101C37.5981 22.1524 36.8438 22.1392 35.4859 22.1156C35.3333 22.1128 35.1704 22.11 34.8691 22.11C34.5678 22.11 34.4049 22.1128 34.2523 22.1156C32.8944 22.1392 32.1402 22.1524 31.32 21.0101C30.9584 20.5063 30.48 20.092 29.9254 19.8067C29.3924 19.5326 28.7859 19.3782 28.1418 19.3782C27.4582 19.3782 26.8169 19.5534 26.2585 19.8603C25.6794 20.1786 25.1907 20.641 24.8366 21.1984C24.8225 21.221 24.8055 21.2418 24.7876 21.2597C24.0211 22.174 23.2838 22.1618 22.0304 22.1401C21.8788 22.1373 21.7159 22.1345 21.4146 22.1345C21.1132 22.1345 20.9503 22.1373 20.7978 22.1401C19.4399 22.1637 18.6856 22.1768 17.8654 21.0346C17.5038 20.5308 17.0255 20.1165 16.4708 19.8311C15.9378 19.5571 15.3314 19.4027 14.6873 19.4027C13.6082 19.4027 12.6307 19.8406 11.9235 20.5478C11.2163 21.2549 10.7785 22.2324 10.7785 23.3115C10.7785 24.3907 11.2163 25.3681 11.9235 26.0753C12.6307 26.7825 13.6082 27.2204 14.6873 27.2204C15.3324 27.2204 15.9388 27.066 16.4708 26.7919C17.0255 26.5076 17.5038 26.0932 17.8654 25.5885C18.6856 24.4463 19.4399 24.4594 20.7978 24.483C20.9503 24.4858 21.1132 24.4886 21.4146 24.4886C21.7159 24.4886 21.8788 24.4858 22.0314 24.483C23.3892 24.4594 24.1435 24.4463 24.9637 25.5885C25.3253 26.0923 25.8037 26.5066 26.3583 26.7919C26.8913 27.066 27.4977 27.2204 28.1418 27.2204C28.8255 27.2204 29.4668 27.0453 30.0252 26.7383C30.6043 26.42 31.093 25.9576 31.4471 25.4002C31.4612 25.3776 31.4782 25.3568 31.4961 25.339C32.2626 24.4246 32.9999 24.4368 34.2533 24.4585C34.4049 24.4613 34.5678 24.4641 34.8691 24.4641C35.1704 24.4641 35.3333 24.4613 35.4859 24.4585C36.8438 24.435 37.5981 24.4218 38.4182 25.564C38.7798 26.0678 39.2582 26.4821 39.8129 26.7675C40.3458 27.0415 40.9523 27.1959 41.5964 27.1959C42.6755 27.1959 43.653 26.758 44.3602 26.0509C45.0673 25.3437 45.5052 24.3662 45.5052 23.2871ZM44.8931 19.9903C45.7369 20.834 46.2586 21.9998 46.2586 23.2871C46.2586 24.5743 45.7369 25.7401 44.8931 26.5838C44.0494 27.4276 42.8836 27.9493 41.5964 27.9493C40.8327 27.9493 40.1104 27.7637 39.471 27.436C38.809 27.0961 38.2393 26.6027 37.809 26.0038C37.2176 25.1808 36.6037 25.1911 35.4981 25.2099C35.2637 25.2137 35.0132 25.2184 34.87 25.2184C34.7269 25.2184 34.4764 25.2137 34.242 25.2099C33.2165 25.1921 32.6129 25.1817 32.0733 25.8192C31.6533 26.4755 31.0732 27.0208 30.3877 27.3984C29.721 27.7656 28.9554 27.9747 28.1428 27.9747C27.3791 27.9747 26.6568 27.7892 26.0174 27.4615C25.3554 27.1215 24.7857 26.6281 24.3554 26.0292C23.764 25.2062 23.1501 25.2165 22.0445 25.2354C21.8101 25.2391 21.5596 25.2438 21.4165 25.2438C21.2733 25.2438 21.0228 25.2391 20.7884 25.2354C19.6829 25.2165 19.0689 25.2052 18.4775 26.0292C18.0472 26.6281 17.4775 27.1215 16.8155 27.4615C16.1761 27.7901 15.4538 27.9747 14.6901 27.9747C13.4029 27.9747 12.2371 27.453 11.3934 26.6093C10.5496 25.7655 10.0279 24.5997 10.0279 23.3125C10.0279 22.0252 10.5496 20.8594 11.3934 20.0157C12.2371 19.172 13.4029 18.6503 14.6901 18.6503C15.4538 18.6503 16.1761 18.8358 16.8155 19.1635C17.4775 19.5034 18.0472 19.9969 18.4775 20.5958C19.0689 21.4188 19.6829 21.4084 20.7884 21.3896C21.0228 21.3858 21.2733 21.3811 21.4165 21.3811C21.5596 21.3811 21.8101 21.3858 22.0445 21.3896C23.07 21.4075 23.6736 21.4179 24.2132 20.7803C24.6332 20.124 25.2133 19.5788 25.8988 19.2012C26.5655 18.8339 27.3311 18.6249 28.1437 18.6249C28.9074 18.6249 29.6297 18.8104 30.2691 19.1381C30.9311 19.478 31.5008 19.9715 31.9311 20.5704C32.5225 21.3934 33.1364 21.383 34.242 21.3642C34.4764 21.3604 34.7269 21.3557 34.87 21.3557C35.0132 21.3557 35.2637 21.3604 35.4981 21.3642C36.6037 21.383 37.2176 21.3943 37.809 20.5704C38.2393 19.9715 38.809 19.478 39.471 19.1381C40.1104 18.8094 40.8327 18.6249 41.5964 18.6249C42.8836 18.6249 44.0494 19.1466 44.8931 19.9903ZM16.7081 33.265C16.7081 31.9777 17.2298 30.8119 18.0735 29.9682C18.9173 29.1245 20.0831 28.6028 21.3703 28.6028C22.134 28.6028 22.8563 28.7883 23.4957 29.116C24.1576 29.4559 24.7274 29.9494 25.1577 30.5483C25.7491 31.3713 26.363 31.3609 27.4685 31.3421C27.703 31.3383 27.9535 31.3336 28.0966 31.3336C28.2398 31.3336 28.4903 31.3383 28.7247 31.3421C29.8302 31.3609 30.4442 31.3722 31.0356 30.5483C31.4659 29.9494 32.0356 29.4559 32.6976 29.116C33.337 28.7873 34.0593 28.6028 34.823 28.6028C36.1102 28.6028 37.276 29.1245 38.1197 29.9682C38.9635 30.8119 39.4851 31.9777 39.4851 33.265C39.4851 34.5522 38.9635 35.718 38.1197 36.5617C37.276 37.4055 36.1102 37.9272 34.823 37.9272C34.0593 37.9272 33.337 37.7416 32.6976 37.4139C32.0356 37.074 31.4659 36.5806 31.0356 35.9817C30.4442 35.1586 29.8302 35.169 28.7247 35.1878C28.4903 35.1916 28.2398 35.1963 28.0966 35.1963C27.9535 35.1963 27.703 35.1916 27.4685 35.1878C26.363 35.169 25.7491 35.1577 25.1577 35.9817C24.7274 36.5806 24.1576 37.074 23.4957 37.4139C22.8563 37.7426 22.134 37.9272 21.3703 37.9272C20.0831 37.9272 18.9173 37.4055 18.0735 36.5617C17.2298 35.718 16.7081 34.5522 16.7081 33.265ZM18.6065 30.5012C17.8993 31.2084 17.4615 32.1858 17.4615 33.265C17.4615 34.3441 17.8993 35.3216 18.6065 36.0288C19.3137 36.7359 20.2912 37.1738 21.3703 37.1738C22.0154 37.1738 22.6218 37.0194 23.1538 36.7454C23.7085 36.461 24.1868 36.0466 24.5484 35.5419C25.3686 34.3997 26.1229 34.4128 27.4808 34.4364C27.6333 34.4392 27.7962 34.442 28.0976 34.442C28.3989 34.442 28.5618 34.4392 28.7144 34.4364C30.0723 34.4128 30.8265 34.3997 31.6467 35.5419C32.0083 36.0457 32.4867 36.46 33.0413 36.7454C33.5743 37.0194 34.1807 37.1738 34.8248 37.1738C35.904 37.1738 36.8814 36.7359 37.5886 36.0288C38.2958 35.3216 38.7337 34.3441 38.7337 33.265C38.7337 32.1858 38.2958 31.2084 37.5886 30.5012C36.8814 29.794 35.904 29.3561 34.8248 29.3561C34.1798 29.3561 33.5734 29.5105 33.0413 29.7846C32.4867 30.0689 32.0083 30.4833 31.6467 30.988C30.8265 32.1303 30.0723 32.1171 28.7144 32.0935C28.5618 32.0907 28.3989 32.0879 28.0976 32.0879C27.7962 32.0879 27.6333 32.0907 27.4808 32.0935C26.1229 32.1171 25.3686 32.1303 24.5484 30.988C24.1868 30.4842 23.7085 30.0699 23.1538 29.7846C22.6208 29.5105 22.0144 29.3561 21.3703 29.3561C20.2912 29.3561 19.3137 29.794 18.6065 30.5012ZM15.2212 32.7066C15.4284 32.7066 15.596 32.8742 15.596 33.0813C15.596 33.2885 15.4284 33.4561 15.2212 33.4561L6.94305 33.4363C6.73588 33.4363 6.56827 33.2687 6.56827 33.0616C6.56827 32.8544 6.73588 32.6868 6.94305 32.6868L15.2212 32.7066ZM41.085 33.4571C40.8779 33.4571 40.7103 33.2894 40.7103 33.0823C40.7103 32.8751 40.8779 32.7075 41.085 32.7075L49.3632 32.6877C49.5704 32.6877 49.738 32.8553 49.738 33.0625C49.738 33.2697 49.5704 33.4373 49.3632 33.4373L41.085 33.4571ZM28.8528 42.773C28.7897 42.82 28.7115 42.8483 28.6268 42.8474L28.1757 42.8455L27.7247 42.8474C27.6399 42.8474 27.5618 42.82 27.4987 42.773C27.4036 42.7042 27.3424 42.5931 27.3433 42.4669C27.3442 42.2598 27.5128 42.0921 27.72 42.0931L28.1757 42.095L28.6315 42.0931C28.8387 42.0921 29.0072 42.2598 29.0082 42.4669C29.0091 42.5931 28.947 42.7042 28.8528 42.773ZM23.086 42.0752C23.2932 42.0761 23.4608 42.2447 23.4599 42.4519C23.4589 42.659 23.2904 42.8266 23.0832 42.8257L15.5847 42.7965C15.3776 42.7956 15.2099 42.627 15.2109 42.4198C15.2118 42.2127 15.3804 42.0451 15.5875 42.046L23.086 42.0752ZM33.2692 42.8257C33.062 42.8266 32.8935 42.659 32.8925 42.4519C32.8916 42.2447 33.0592 42.0761 33.2664 42.0752L40.7649 42.046C40.972 42.0451 41.1406 42.2127 41.1415 42.4198C41.1425 42.627 40.9749 42.7956 40.7677 42.7965L33.2692 42.8257ZM15.2212 13.1651C15.4284 13.1651 15.596 13.3327 15.596 13.5399C15.596 13.747 15.4284 13.9147 15.2212 13.9147L6.94305 13.9344C6.73588 13.9344 6.56827 13.7668 6.56827 13.5597C6.56827 13.3525 6.73588 13.1849 6.94305 13.1849L15.2212 13.1651ZM41.085 13.9156C40.8779 13.9156 40.7103 13.748 40.7103 13.5408C40.7103 13.3337 40.8779 13.166 41.085 13.166L49.3632 13.1858C49.5704 13.1858 49.738 13.3534 49.738 13.5606C49.738 13.7678 49.5704 13.9354 49.3632 13.9354L41.085 13.9156ZM28.6268 3.7748C28.7115 3.7748 28.7897 3.8021 28.8528 3.84919C28.9479 3.91793 29.0091 4.02905 29.0082 4.15523C29.0072 4.3624 28.8387 4.53001 28.6315 4.52907L28.1757 4.52719L27.72 4.52907C27.5128 4.53001 27.3442 4.3624 27.3433 4.15523C27.3424 4.02905 27.4045 3.91793 27.4987 3.84919C27.5618 3.8021 27.6399 3.77385 27.7247 3.7748L28.1757 3.77668L28.6268 3.7748ZM23.0832 3.79645C23.2904 3.79551 23.4589 3.96313 23.4599 4.1703C23.4608 4.37746 23.2932 4.54602 23.086 4.54696L15.5875 4.57615C15.3804 4.5771 15.2118 4.40948 15.2109 4.20231C15.2099 3.99515 15.3776 3.82659 15.5847 3.82565L23.0832 3.79645ZM33.2664 4.54696C33.0592 4.54602 32.8916 4.37746 32.8925 4.1703C32.8935 3.96313 33.062 3.79551 33.2692 3.79645L40.7677 3.82565C40.9749 3.82659 41.1425 3.99515 41.1415 4.20231C41.1406 4.40948 40.972 4.5771 40.7649 4.57615L33.2664 4.54696ZM8.50904 22.9217C8.71621 22.9217 8.88382 23.0893 8.88382 23.2965C8.88382 23.5036 8.71621 23.6713 8.50904 23.6713L0.576443 23.6854C0.369277 23.6854 0.20166 23.5178 0.20166 23.3106C0.20166 23.1034 0.369277 22.9358 0.576443 22.9358L8.50904 22.9217Z"/>
</mask>
<path d="M47.8255 23.6731C47.6183 23.6731 47.4507 23.5055 47.4507 23.2984C47.4507 23.0912 47.6183 22.9236 47.8255 22.9236L55.7581 22.9377C55.9653 22.9377 56.1329 23.1053 56.1329 23.3125C56.1329 23.5197 55.9653 23.6873 55.7581 23.6873L47.8255 23.6731ZM28.0627 7.17704C28.9215 7.17704 29.7003 6.82862 30.2625 6.2655C30.8256 5.70239 31.174 4.92457 31.174 4.06577C31.174 3.20697 30.8256 2.42821 30.2625 1.86604C29.6994 1.30292 28.9215 0.954505 28.0627 0.954505C27.2039 0.954505 26.4252 1.30292 25.863 1.86604C25.2999 2.42915 24.9515 3.20697 24.9515 4.06577C24.9515 4.92457 25.2999 5.70333 25.863 6.2655C26.4261 6.82862 27.2039 7.17704 28.0627 7.17704ZM30.7955 6.79849C30.0958 7.49814 29.1296 7.93037 28.0627 7.93037C26.9958 7.93037 26.0297 7.49814 25.33 6.79849C24.6304 6.09883 24.1981 5.13268 24.1981 4.06577C24.1981 2.99886 24.6304 2.03271 25.33 1.33305C26.0297 0.633397 26.9958 0.201172 28.0627 0.201172C29.1296 0.201172 30.0958 0.633397 30.7955 1.33305C31.4951 2.03271 31.9273 2.99886 31.9273 4.06577C31.9273 5.13268 31.4951 6.09883 30.7955 6.79849ZM17.4624 13.5107C17.4624 14.5898 17.9003 15.5673 18.6075 16.2745C19.3147 16.9817 20.2921 17.4195 21.3713 17.4195C22.0163 17.4195 22.6227 17.2651 23.1548 16.9911C23.7094 16.7067 24.1878 16.2924 24.5494 15.7876C25.3696 14.6454 26.1238 14.6586 27.4817 14.6821C27.6343 14.6849 27.7972 14.6878 28.0985 14.6878C28.3999 14.6878 28.5628 14.6849 28.7153 14.6821C30.0732 14.6586 30.8275 14.6454 31.6477 15.7876C32.0093 16.2914 32.4876 16.7058 33.0423 16.9911C33.5753 17.2651 34.1817 17.4195 34.8258 17.4195C35.9049 17.4195 36.8824 16.9817 37.5896 16.2745C38.2968 15.5673 38.7346 14.5898 38.7346 13.5107C38.7346 12.4315 38.2968 11.4541 37.5896 10.7469C36.8824 10.0397 35.9049 9.60183 34.8258 9.60183C34.1807 9.60183 33.5743 9.75626 33.0423 10.0303C32.4876 10.3147 32.0093 10.729 31.6477 11.2337C30.8275 12.376 30.0732 12.3628 28.7153 12.3393C28.5628 12.3364 28.3999 12.3336 28.0985 12.3336C27.7972 12.3336 27.6343 12.3364 27.4817 12.3393C26.1238 12.3628 25.3696 12.376 24.5494 11.2337C24.1878 10.7299 23.7094 10.3156 23.1548 10.0303C22.6218 9.75626 22.0154 9.60183 21.3713 9.60183C20.2921 9.60183 19.3147 10.0397 18.6075 10.7469C17.9003 11.4541 17.4624 12.4315 17.4624 13.5107ZM18.0745 16.8075C17.2308 15.9637 16.7091 14.7979 16.7091 13.5107C16.7091 12.2234 17.2308 11.0576 18.0745 10.2139C18.9182 9.37018 20.084 8.84849 21.3713 8.84849C22.135 8.84849 22.8572 9.034 23.4966 9.3617C24.1586 9.70164 24.7283 10.1951 25.1586 10.794C25.75 11.617 26.364 11.6066 27.4695 11.5878C27.704 11.584 27.9544 11.5793 28.0976 11.5793C28.2407 11.5793 28.4912 11.584 28.7257 11.5878C29.8312 11.6066 30.4452 11.6179 31.0365 10.794C31.4669 10.1951 32.0366 9.70164 32.6986 9.3617C33.338 9.03306 34.0602 8.84849 34.8239 8.84849C36.1112 8.84849 37.2769 9.37018 38.1207 10.2139C38.9644 11.0576 39.4861 12.2234 39.4861 13.5107C39.4861 14.7979 38.9644 15.9637 38.1207 16.8075C37.2769 17.6512 36.1112 18.1729 34.8239 18.1729C34.0602 18.1729 33.338 17.9874 32.6986 17.6597C32.0366 17.3197 31.4669 16.8263 31.0365 16.2274C30.4452 15.4044 29.8312 15.4147 28.7257 15.4336C28.4912 15.4373 28.2407 15.442 28.0976 15.442C27.9544 15.442 27.704 15.4373 27.4695 15.4336C26.364 15.4147 25.75 15.4034 25.1586 16.2274C24.7283 16.8263 24.1586 17.3197 23.4966 17.6597C22.8572 17.9883 22.135 18.1729 21.3713 18.1729C20.084 18.1729 18.9182 17.6512 18.0745 16.8075ZM28.0627 38.8462C29.1296 38.8462 30.0958 39.2784 30.7955 39.9781C31.4951 40.6778 31.9273 41.6439 31.9273 42.7108C31.9273 43.7777 31.4951 44.7439 30.7955 45.4435C30.0958 46.1432 29.1296 46.5754 28.0627 46.5754C26.9958 46.5754 26.0297 46.1432 25.33 45.4435C24.6304 44.7439 24.1981 43.7777 24.1981 42.7108C24.1981 41.6439 24.6304 40.6778 25.33 39.9781C26.0297 39.2784 26.9958 38.8462 28.0627 38.8462ZM30.2625 40.5111C29.6994 39.948 28.9215 39.5995 28.0627 39.5995C27.2039 39.5995 26.4252 39.948 25.863 40.5111C25.2999 41.0742 24.9515 41.852 24.9515 42.7108C24.9515 43.5696 25.2999 44.3484 25.863 44.9105C26.4261 45.4737 27.2039 45.8221 28.0627 45.8221C28.9215 45.8221 29.7003 45.4737 30.2625 44.9105C30.8256 44.3474 31.174 43.5696 31.174 42.7108C31.174 41.852 30.8256 41.0733 30.2625 40.5111ZM45.5052 23.2871C45.5052 22.2079 45.0673 21.2305 44.3602 20.5233C43.653 19.8161 42.6755 19.3782 41.5964 19.3782C40.9513 19.3782 40.3449 19.5326 39.8129 19.8067C39.2582 20.091 38.7798 20.5054 38.4182 21.0101C37.5981 22.1524 36.8438 22.1392 35.4859 22.1156C35.3333 22.1128 35.1704 22.11 34.8691 22.11C34.5678 22.11 34.4049 22.1128 34.2523 22.1156C32.8944 22.1392 32.1402 22.1524 31.32 21.0101C30.9584 20.5063 30.48 20.092 29.9254 19.8067C29.3924 19.5326 28.7859 19.3782 28.1418 19.3782C27.4582 19.3782 26.8169 19.5534 26.2585 19.8603C25.6794 20.1786 25.1907 20.641 24.8366 21.1984C24.8225 21.221 24.8055 21.2418 24.7876 21.2597C24.0211 22.174 23.2838 22.1618 22.0304 22.1401C21.8788 22.1373 21.7159 22.1345 21.4146 22.1345C21.1132 22.1345 20.9503 22.1373 20.7978 22.1401C19.4399 22.1637 18.6856 22.1768 17.8654 21.0346C17.5038 20.5308 17.0255 20.1165 16.4708 19.8311C15.9378 19.5571 15.3314 19.4027 14.6873 19.4027C13.6082 19.4027 12.6307 19.8406 11.9235 20.5478C11.2163 21.2549 10.7785 22.2324 10.7785 23.3115C10.7785 24.3907 11.2163 25.3681 11.9235 26.0753C12.6307 26.7825 13.6082 27.2204 14.6873 27.2204C15.3324 27.2204 15.9388 27.066 16.4708 26.7919C17.0255 26.5076 17.5038 26.0932 17.8654 25.5885C18.6856 24.4463 19.4399 24.4594 20.7978 24.483C20.9503 24.4858 21.1132 24.4886 21.4146 24.4886C21.7159 24.4886 21.8788 24.4858 22.0314 24.483C23.3892 24.4594 24.1435 24.4463 24.9637 25.5885C25.3253 26.0923 25.8037 26.5066 26.3583 26.7919C26.8913 27.066 27.4977 27.2204 28.1418 27.2204C28.8255 27.2204 29.4668 27.0453 30.0252 26.7383C30.6043 26.42 31.093 25.9576 31.4471 25.4002C31.4612 25.3776 31.4782 25.3568 31.4961 25.339C32.2626 24.4246 32.9999 24.4368 34.2533 24.4585C34.4049 24.4613 34.5678 24.4641 34.8691 24.4641C35.1704 24.4641 35.3333 24.4613 35.4859 24.4585C36.8438 24.435 37.5981 24.4218 38.4182 25.564C38.7798 26.0678 39.2582 26.4821 39.8129 26.7675C40.3458 27.0415 40.9523 27.1959 41.5964 27.1959C42.6755 27.1959 43.653 26.758 44.3602 26.0509C45.0673 25.3437 45.5052 24.3662 45.5052 23.2871ZM44.8931 19.9903C45.7369 20.834 46.2586 21.9998 46.2586 23.2871C46.2586 24.5743 45.7369 25.7401 44.8931 26.5838C44.0494 27.4276 42.8836 27.9493 41.5964 27.9493C40.8327 27.9493 40.1104 27.7637 39.471 27.436C38.809 27.0961 38.2393 26.6027 37.809 26.0038C37.2176 25.1808 36.6037 25.1911 35.4981 25.2099C35.2637 25.2137 35.0132 25.2184 34.87 25.2184C34.7269 25.2184 34.4764 25.2137 34.242 25.2099C33.2165 25.1921 32.6129 25.1817 32.0733 25.8192C31.6533 26.4755 31.0732 27.0208 30.3877 27.3984C29.721 27.7656 28.9554 27.9747 28.1428 27.9747C27.3791 27.9747 26.6568 27.7892 26.0174 27.4615C25.3554 27.1215 24.7857 26.6281 24.3554 26.0292C23.764 25.2062 23.1501 25.2165 22.0445 25.2354C21.8101 25.2391 21.5596 25.2438 21.4165 25.2438C21.2733 25.2438 21.0228 25.2391 20.7884 25.2354C19.6829 25.2165 19.0689 25.2052 18.4775 26.0292C18.0472 26.6281 17.4775 27.1215 16.8155 27.4615C16.1761 27.7901 15.4538 27.9747 14.6901 27.9747C13.4029 27.9747 12.2371 27.453 11.3934 26.6093C10.5496 25.7655 10.0279 24.5997 10.0279 23.3125C10.0279 22.0252 10.5496 20.8594 11.3934 20.0157C12.2371 19.172 13.4029 18.6503 14.6901 18.6503C15.4538 18.6503 16.1761 18.8358 16.8155 19.1635C17.4775 19.5034 18.0472 19.9969 18.4775 20.5958C19.0689 21.4188 19.6829 21.4084 20.7884 21.3896C21.0228 21.3858 21.2733 21.3811 21.4165 21.3811C21.5596 21.3811 21.8101 21.3858 22.0445 21.3896C23.07 21.4075 23.6736 21.4179 24.2132 20.7803C24.6332 20.124 25.2133 19.5788 25.8988 19.2012C26.5655 18.8339 27.3311 18.6249 28.1437 18.6249C28.9074 18.6249 29.6297 18.8104 30.2691 19.1381C30.9311 19.478 31.5008 19.9715 31.9311 20.5704C32.5225 21.3934 33.1364 21.383 34.242 21.3642C34.4764 21.3604 34.7269 21.3557 34.87 21.3557C35.0132 21.3557 35.2637 21.3604 35.4981 21.3642C36.6037 21.383 37.2176 21.3943 37.809 20.5704C38.2393 19.9715 38.809 19.478 39.471 19.1381C40.1104 18.8094 40.8327 18.6249 41.5964 18.6249C42.8836 18.6249 44.0494 19.1466 44.8931 19.9903ZM16.7081 33.265C16.7081 31.9777 17.2298 30.8119 18.0735 29.9682C18.9173 29.1245 20.0831 28.6028 21.3703 28.6028C22.134 28.6028 22.8563 28.7883 23.4957 29.116C24.1576 29.4559 24.7274 29.9494 25.1577 30.5483C25.7491 31.3713 26.363 31.3609 27.4685 31.3421C27.703 31.3383 27.9535 31.3336 28.0966 31.3336C28.2398 31.3336 28.4903 31.3383 28.7247 31.3421C29.8302 31.3609 30.4442 31.3722 31.0356 30.5483C31.4659 29.9494 32.0356 29.4559 32.6976 29.116C33.337 28.7873 34.0593 28.6028 34.823 28.6028C36.1102 28.6028 37.276 29.1245 38.1197 29.9682C38.9635 30.8119 39.4851 31.9777 39.4851 33.265C39.4851 34.5522 38.9635 35.718 38.1197 36.5617C37.276 37.4055 36.1102 37.9272 34.823 37.9272C34.0593 37.9272 33.337 37.7416 32.6976 37.4139C32.0356 37.074 31.4659 36.5806 31.0356 35.9817C30.4442 35.1586 29.8302 35.169 28.7247 35.1878C28.4903 35.1916 28.2398 35.1963 28.0966 35.1963C27.9535 35.1963 27.703 35.1916 27.4685 35.1878C26.363 35.169 25.7491 35.1577 25.1577 35.9817C24.7274 36.5806 24.1576 37.074 23.4957 37.4139C22.8563 37.7426 22.134 37.9272 21.3703 37.9272C20.0831 37.9272 18.9173 37.4055 18.0735 36.5617C17.2298 35.718 16.7081 34.5522 16.7081 33.265ZM18.6065 30.5012C17.8993 31.2084 17.4615 32.1858 17.4615 33.265C17.4615 34.3441 17.8993 35.3216 18.6065 36.0288C19.3137 36.7359 20.2912 37.1738 21.3703 37.1738C22.0154 37.1738 22.6218 37.0194 23.1538 36.7454C23.7085 36.461 24.1868 36.0466 24.5484 35.5419C25.3686 34.3997 26.1229 34.4128 27.4808 34.4364C27.6333 34.4392 27.7962 34.442 28.0976 34.442C28.3989 34.442 28.5618 34.4392 28.7144 34.4364C30.0723 34.4128 30.8265 34.3997 31.6467 35.5419C32.0083 36.0457 32.4867 36.46 33.0413 36.7454C33.5743 37.0194 34.1807 37.1738 34.8248 37.1738C35.904 37.1738 36.8814 36.7359 37.5886 36.0288C38.2958 35.3216 38.7337 34.3441 38.7337 33.265C38.7337 32.1858 38.2958 31.2084 37.5886 30.5012C36.8814 29.794 35.904 29.3561 34.8248 29.3561C34.1798 29.3561 33.5734 29.5105 33.0413 29.7846C32.4867 30.0689 32.0083 30.4833 31.6467 30.988C30.8265 32.1303 30.0723 32.1171 28.7144 32.0935C28.5618 32.0907 28.3989 32.0879 28.0976 32.0879C27.7962 32.0879 27.6333 32.0907 27.4808 32.0935C26.1229 32.1171 25.3686 32.1303 24.5484 30.988C24.1868 30.4842 23.7085 30.0699 23.1538 29.7846C22.6208 29.5105 22.0144 29.3561 21.3703 29.3561C20.2912 29.3561 19.3137 29.794 18.6065 30.5012ZM15.2212 32.7066C15.4284 32.7066 15.596 32.8742 15.596 33.0813C15.596 33.2885 15.4284 33.4561 15.2212 33.4561L6.94305 33.4363C6.73588 33.4363 6.56827 33.2687 6.56827 33.0616C6.56827 32.8544 6.73588 32.6868 6.94305 32.6868L15.2212 32.7066ZM41.085 33.4571C40.8779 33.4571 40.7103 33.2894 40.7103 33.0823C40.7103 32.8751 40.8779 32.7075 41.085 32.7075L49.3632 32.6877C49.5704 32.6877 49.738 32.8553 49.738 33.0625C49.738 33.2697 49.5704 33.4373 49.3632 33.4373L41.085 33.4571ZM28.8528 42.773C28.7897 42.82 28.7115 42.8483 28.6268 42.8474L28.1757 42.8455L27.7247 42.8474C27.6399 42.8474 27.5618 42.82 27.4987 42.773C27.4036 42.7042 27.3424 42.5931 27.3433 42.4669C27.3442 42.2598 27.5128 42.0921 27.72 42.0931L28.1757 42.095L28.6315 42.0931C28.8387 42.0921 29.0072 42.2598 29.0082 42.4669C29.0091 42.5931 28.947 42.7042 28.8528 42.773ZM23.086 42.0752C23.2932 42.0761 23.4608 42.2447 23.4599 42.4519C23.4589 42.659 23.2904 42.8266 23.0832 42.8257L15.5847 42.7965C15.3776 42.7956 15.2099 42.627 15.2109 42.4198C15.2118 42.2127 15.3804 42.0451 15.5875 42.046L23.086 42.0752ZM33.2692 42.8257C33.062 42.8266 32.8935 42.659 32.8925 42.4519C32.8916 42.2447 33.0592 42.0761 33.2664 42.0752L40.7649 42.046C40.972 42.0451 41.1406 42.2127 41.1415 42.4198C41.1425 42.627 40.9749 42.7956 40.7677 42.7965L33.2692 42.8257ZM15.2212 13.1651C15.4284 13.1651 15.596 13.3327 15.596 13.5399C15.596 13.747 15.4284 13.9147 15.2212 13.9147L6.94305 13.9344C6.73588 13.9344 6.56827 13.7668 6.56827 13.5597C6.56827 13.3525 6.73588 13.1849 6.94305 13.1849L15.2212 13.1651ZM41.085 13.9156C40.8779 13.9156 40.7103 13.748 40.7103 13.5408C40.7103 13.3337 40.8779 13.166 41.085 13.166L49.3632 13.1858C49.5704 13.1858 49.738 13.3534 49.738 13.5606C49.738 13.7678 49.5704 13.9354 49.3632 13.9354L41.085 13.9156ZM28.6268 3.7748C28.7115 3.7748 28.7897 3.8021 28.8528 3.84919C28.9479 3.91793 29.0091 4.02905 29.0082 4.15523C29.0072 4.3624 28.8387 4.53001 28.6315 4.52907L28.1757 4.52719L27.72 4.52907C27.5128 4.53001 27.3442 4.3624 27.3433 4.15523C27.3424 4.02905 27.4045 3.91793 27.4987 3.84919C27.5618 3.8021 27.6399 3.77385 27.7247 3.7748L28.1757 3.77668L28.6268 3.7748ZM23.0832 3.79645C23.2904 3.79551 23.4589 3.96313 23.4599 4.1703C23.4608 4.37746 23.2932 4.54602 23.086 4.54696L15.5875 4.57615C15.3804 4.5771 15.2118 4.40948 15.2109 4.20231C15.2099 3.99515 15.3776 3.82659 15.5847 3.82565L23.0832 3.79645ZM33.2664 4.54696C33.0592 4.54602 32.8916 4.37746 32.8925 4.1703C32.8935 3.96313 33.062 3.79551 33.2692 3.79645L40.7677 3.82565C40.9749 3.82659 41.1425 3.99515 41.1415 4.20231C41.1406 4.40948 40.972 4.5771 40.7649 4.57615L33.2664 4.54696ZM8.50904 22.9217C8.71621 22.9217 8.88382 23.0893 8.88382 23.2965C8.88382 23.5036 8.71621 23.6713 8.50904 23.6713L0.576443 23.6854C0.369277 23.6854 0.20166 23.5178 0.20166 23.3106C0.20166 23.1034 0.369277 22.9358 0.576443 22.9358L8.50904 22.9217Z" fill="#07FBFF"/>
<path d="M47.8255 23.6731C47.6183 23.6731 47.4507 23.5055 47.4507 23.2984C47.4507 23.0912 47.6183 22.9236 47.8255 22.9236L55.7581 22.9377C55.9653 22.9377 56.1329 23.1053 56.1329 23.3125C56.1329 23.5197 55.9653 23.6873 55.7581 23.6873L47.8255 23.6731ZM28.0627 7.17704C28.9215 7.17704 29.7003 6.82862 30.2625 6.2655C30.8256 5.70239 31.174 4.92457 31.174 4.06577C31.174 3.20697 30.8256 2.42821 30.2625 1.86604C29.6994 1.30292 28.9215 0.954505 28.0627 0.954505C27.2039 0.954505 26.4252 1.30292 25.863 1.86604C25.2999 2.42915 24.9515 3.20697 24.9515 4.06577C24.9515 4.92457 25.2999 5.70333 25.863 6.2655C26.4261 6.82862 27.2039 7.17704 28.0627 7.17704ZM30.7955 6.79849C30.0958 7.49814 29.1296 7.93037 28.0627 7.93037C26.9958 7.93037 26.0297 7.49814 25.33 6.79849C24.6304 6.09883 24.1981 5.13268 24.1981 4.06577C24.1981 2.99886 24.6304 2.03271 25.33 1.33305C26.0297 0.633397 26.9958 0.201172 28.0627 0.201172C29.1296 0.201172 30.0958 0.633397 30.7955 1.33305C31.4951 2.03271 31.9273 2.99886 31.9273 4.06577C31.9273 5.13268 31.4951 6.09883 30.7955 6.79849ZM17.4624 13.5107C17.4624 14.5898 17.9003 15.5673 18.6075 16.2745C19.3147 16.9817 20.2921 17.4195 21.3713 17.4195C22.0163 17.4195 22.6227 17.2651 23.1548 16.9911C23.7094 16.7067 24.1878 16.2924 24.5494 15.7876C25.3696 14.6454 26.1238 14.6586 27.4817 14.6821C27.6343 14.6849 27.7972 14.6878 28.0985 14.6878C28.3999 14.6878 28.5628 14.6849 28.7153 14.6821C30.0732 14.6586 30.8275 14.6454 31.6477 15.7876C32.0093 16.2914 32.4876 16.7058 33.0423 16.9911C33.5753 17.2651 34.1817 17.4195 34.8258 17.4195C35.9049 17.4195 36.8824 16.9817 37.5896 16.2745C38.2968 15.5673 38.7346 14.5898 38.7346 13.5107C38.7346 12.4315 38.2968 11.4541 37.5896 10.7469C36.8824 10.0397 35.9049 9.60183 34.8258 9.60183C34.1807 9.60183 33.5743 9.75626 33.0423 10.0303C32.4876 10.3147 32.0093 10.729 31.6477 11.2337C30.8275 12.376 30.0732 12.3628 28.7153 12.3393C28.5628 12.3364 28.3999 12.3336 28.0985 12.3336C27.7972 12.3336 27.6343 12.3364 27.4817 12.3393C26.1238 12.3628 25.3696 12.376 24.5494 11.2337C24.1878 10.7299 23.7094 10.3156 23.1548 10.0303C22.6218 9.75626 22.0154 9.60183 21.3713 9.60183C20.2921 9.60183 19.3147 10.0397 18.6075 10.7469C17.9003 11.4541 17.4624 12.4315 17.4624 13.5107ZM18.0745 16.8075C17.2308 15.9637 16.7091 14.7979 16.7091 13.5107C16.7091 12.2234 17.2308 11.0576 18.0745 10.2139C18.9182 9.37018 20.084 8.84849 21.3713 8.84849C22.135 8.84849 22.8572 9.034 23.4966 9.3617C24.1586 9.70164 24.7283 10.1951 25.1586 10.794C25.75 11.617 26.364 11.6066 27.4695 11.5878C27.704 11.584 27.9544 11.5793 28.0976 11.5793C28.2407 11.5793 28.4912 11.584 28.7257 11.5878C29.8312 11.6066 30.4452 11.6179 31.0365 10.794C31.4669 10.1951 32.0366 9.70164 32.6986 9.3617C33.338 9.03306 34.0602 8.84849 34.8239 8.84849C36.1112 8.84849 37.2769 9.37018 38.1207 10.2139C38.9644 11.0576 39.4861 12.2234 39.4861 13.5107C39.4861 14.7979 38.9644 15.9637 38.1207 16.8075C37.2769 17.6512 36.1112 18.1729 34.8239 18.1729C34.0602 18.1729 33.338 17.9874 32.6986 17.6597C32.0366 17.3197 31.4669 16.8263 31.0365 16.2274C30.4452 15.4044 29.8312 15.4147 28.7257 15.4336C28.4912 15.4373 28.2407 15.442 28.0976 15.442C27.9544 15.442 27.704 15.4373 27.4695 15.4336C26.364 15.4147 25.75 15.4034 25.1586 16.2274C24.7283 16.8263 24.1586 17.3197 23.4966 17.6597C22.8572 17.9883 22.135 18.1729 21.3713 18.1729C20.084 18.1729 18.9182 17.6512 18.0745 16.8075ZM28.0627 38.8462C29.1296 38.8462 30.0958 39.2784 30.7955 39.9781C31.4951 40.6778 31.9273 41.6439 31.9273 42.7108C31.9273 43.7777 31.4951 44.7439 30.7955 45.4435C30.0958 46.1432 29.1296 46.5754 28.0627 46.5754C26.9958 46.5754 26.0297 46.1432 25.33 45.4435C24.6304 44.7439 24.1981 43.7777 24.1981 42.7108C24.1981 41.6439 24.6304 40.6778 25.33 39.9781C26.0297 39.2784 26.9958 38.8462 28.0627 38.8462ZM30.2625 40.5111C29.6994 39.948 28.9215 39.5995 28.0627 39.5995C27.2039 39.5995 26.4252 39.948 25.863 40.5111C25.2999 41.0742 24.9515 41.852 24.9515 42.7108C24.9515 43.5696 25.2999 44.3484 25.863 44.9105C26.4261 45.4737 27.2039 45.8221 28.0627 45.8221C28.9215 45.8221 29.7003 45.4737 30.2625 44.9105C30.8256 44.3474 31.174 43.5696 31.174 42.7108C31.174 41.852 30.8256 41.0733 30.2625 40.5111ZM45.5052 23.2871C45.5052 22.2079 45.0673 21.2305 44.3602 20.5233C43.653 19.8161 42.6755 19.3782 41.5964 19.3782C40.9513 19.3782 40.3449 19.5326 39.8129 19.8067C39.2582 20.091 38.7798 20.5054 38.4182 21.0101C37.5981 22.1524 36.8438 22.1392 35.4859 22.1156C35.3333 22.1128 35.1704 22.11 34.8691 22.11C34.5678 22.11 34.4049 22.1128 34.2523 22.1156C32.8944 22.1392 32.1402 22.1524 31.32 21.0101C30.9584 20.5063 30.48 20.092 29.9254 19.8067C29.3924 19.5326 28.7859 19.3782 28.1418 19.3782C27.4582 19.3782 26.8169 19.5534 26.2585 19.8603C25.6794 20.1786 25.1907 20.641 24.8366 21.1984C24.8225 21.221 24.8055 21.2418 24.7876 21.2597C24.0211 22.174 23.2838 22.1618 22.0304 22.1401C21.8788 22.1373 21.7159 22.1345 21.4146 22.1345C21.1132 22.1345 20.9503 22.1373 20.7978 22.1401C19.4399 22.1637 18.6856 22.1768 17.8654 21.0346C17.5038 20.5308 17.0255 20.1165 16.4708 19.8311C15.9378 19.5571 15.3314 19.4027 14.6873 19.4027C13.6082 19.4027 12.6307 19.8406 11.9235 20.5478C11.2163 21.2549 10.7785 22.2324 10.7785 23.3115C10.7785 24.3907 11.2163 25.3681 11.9235 26.0753C12.6307 26.7825 13.6082 27.2204 14.6873 27.2204C15.3324 27.2204 15.9388 27.066 16.4708 26.7919C17.0255 26.5076 17.5038 26.0932 17.8654 25.5885C18.6856 24.4463 19.4399 24.4594 20.7978 24.483C20.9503 24.4858 21.1132 24.4886 21.4146 24.4886C21.7159 24.4886 21.8788 24.4858 22.0314 24.483C23.3892 24.4594 24.1435 24.4463 24.9637 25.5885C25.3253 26.0923 25.8037 26.5066 26.3583 26.7919C26.8913 27.066 27.4977 27.2204 28.1418 27.2204C28.8255 27.2204 29.4668 27.0453 30.0252 26.7383C30.6043 26.42 31.093 25.9576 31.4471 25.4002C31.4612 25.3776 31.4782 25.3568 31.4961 25.339C32.2626 24.4246 32.9999 24.4368 34.2533 24.4585C34.4049 24.4613 34.5678 24.4641 34.8691 24.4641C35.1704 24.4641 35.3333 24.4613 35.4859 24.4585C36.8438 24.435 37.5981 24.4218 38.4182 25.564C38.7798 26.0678 39.2582 26.4821 39.8129 26.7675C40.3458 27.0415 40.9523 27.1959 41.5964 27.1959C42.6755 27.1959 43.653 26.758 44.3602 26.0509C45.0673 25.3437 45.5052 24.3662 45.5052 23.2871ZM44.8931 19.9903C45.7369 20.834 46.2586 21.9998 46.2586 23.2871C46.2586 24.5743 45.7369 25.7401 44.8931 26.5838C44.0494 27.4276 42.8836 27.9493 41.5964 27.9493C40.8327 27.9493 40.1104 27.7637 39.471 27.436C38.809 27.0961 38.2393 26.6027 37.809 26.0038C37.2176 25.1808 36.6037 25.1911 35.4981 25.2099C35.2637 25.2137 35.0132 25.2184 34.87 25.2184C34.7269 25.2184 34.4764 25.2137 34.242 25.2099C33.2165 25.1921 32.6129 25.1817 32.0733 25.8192C31.6533 26.4755 31.0732 27.0208 30.3877 27.3984C29.721 27.7656 28.9554 27.9747 28.1428 27.9747C27.3791 27.9747 26.6568 27.7892 26.0174 27.4615C25.3554 27.1215 24.7857 26.6281 24.3554 26.0292C23.764 25.2062 23.1501 25.2165 22.0445 25.2354C21.8101 25.2391 21.5596 25.2438 21.4165 25.2438C21.2733 25.2438 21.0228 25.2391 20.7884 25.2354C19.6829 25.2165 19.0689 25.2052 18.4775 26.0292C18.0472 26.6281 17.4775 27.1215 16.8155 27.4615C16.1761 27.7901 15.4538 27.9747 14.6901 27.9747C13.4029 27.9747 12.2371 27.453 11.3934 26.6093C10.5496 25.7655 10.0279 24.5997 10.0279 23.3125C10.0279 22.0252 10.5496 20.8594 11.3934 20.0157C12.2371 19.172 13.4029 18.6503 14.6901 18.6503C15.4538 18.6503 16.1761 18.8358 16.8155 19.1635C17.4775 19.5034 18.0472 19.9969 18.4775 20.5958C19.0689 21.4188 19.6829 21.4084 20.7884 21.3896C21.0228 21.3858 21.2733 21.3811 21.4165 21.3811C21.5596 21.3811 21.8101 21.3858 22.0445 21.3896C23.07 21.4075 23.6736 21.4179 24.2132 20.7803C24.6332 20.124 25.2133 19.5788 25.8988 19.2012C26.5655 18.8339 27.3311 18.6249 28.1437 18.6249C28.9074 18.6249 29.6297 18.8104 30.2691 19.1381C30.9311 19.478 31.5008 19.9715 31.9311 20.5704C32.5225 21.3934 33.1364 21.383 34.242 21.3642C34.4764 21.3604 34.7269 21.3557 34.87 21.3557C35.0132 21.3557 35.2637 21.3604 35.4981 21.3642C36.6037 21.383 37.2176 21.3943 37.809 20.5704C38.2393 19.9715 38.809 19.478 39.471 19.1381C40.1104 18.8094 40.8327 18.6249 41.5964 18.6249C42.8836 18.6249 44.0494 19.1466 44.8931 19.9903ZM16.7081 33.265C16.7081 31.9777 17.2298 30.8119 18.0735 29.9682C18.9173 29.1245 20.0831 28.6028 21.3703 28.6028C22.134 28.6028 22.8563 28.7883 23.4957 29.116C24.1576 29.4559 24.7274 29.9494 25.1577 30.5483C25.7491 31.3713 26.363 31.3609 27.4685 31.3421C27.703 31.3383 27.9535 31.3336 28.0966 31.3336C28.2398 31.3336 28.4903 31.3383 28.7247 31.3421C29.8302 31.3609 30.4442 31.3722 31.0356 30.5483C31.4659 29.9494 32.0356 29.4559 32.6976 29.116C33.337 28.7873 34.0593 28.6028 34.823 28.6028C36.1102 28.6028 37.276 29.1245 38.1197 29.9682C38.9635 30.8119 39.4851 31.9777 39.4851 33.265C39.4851 34.5522 38.9635 35.718 38.1197 36.5617C37.276 37.4055 36.1102 37.9272 34.823 37.9272C34.0593 37.9272 33.337 37.7416 32.6976 37.4139C32.0356 37.074 31.4659 36.5806 31.0356 35.9817C30.4442 35.1586 29.8302 35.169 28.7247 35.1878C28.4903 35.1916 28.2398 35.1963 28.0966 35.1963C27.9535 35.1963 27.703 35.1916 27.4685 35.1878C26.363 35.169 25.7491 35.1577 25.1577 35.9817C24.7274 36.5806 24.1576 37.074 23.4957 37.4139C22.8563 37.7426 22.134 37.9272 21.3703 37.9272C20.0831 37.9272 18.9173 37.4055 18.0735 36.5617C17.2298 35.718 16.7081 34.5522 16.7081 33.265ZM18.6065 30.5012C17.8993 31.2084 17.4615 32.1858 17.4615 33.265C17.4615 34.3441 17.8993 35.3216 18.6065 36.0288C19.3137 36.7359 20.2912 37.1738 21.3703 37.1738C22.0154 37.1738 22.6218 37.0194 23.1538 36.7454C23.7085 36.461 24.1868 36.0466 24.5484 35.5419C25.3686 34.3997 26.1229 34.4128 27.4808 34.4364C27.6333 34.4392 27.7962 34.442 28.0976 34.442C28.3989 34.442 28.5618 34.4392 28.7144 34.4364C30.0723 34.4128 30.8265 34.3997 31.6467 35.5419C32.0083 36.0457 32.4867 36.46 33.0413 36.7454C33.5743 37.0194 34.1807 37.1738 34.8248 37.1738C35.904 37.1738 36.8814 36.7359 37.5886 36.0288C38.2958 35.3216 38.7337 34.3441 38.7337 33.265C38.7337 32.1858 38.2958 31.2084 37.5886 30.5012C36.8814 29.794 35.904 29.3561 34.8248 29.3561C34.1798 29.3561 33.5734 29.5105 33.0413 29.7846C32.4867 30.0689 32.0083 30.4833 31.6467 30.988C30.8265 32.1303 30.0723 32.1171 28.7144 32.0935C28.5618 32.0907 28.3989 32.0879 28.0976 32.0879C27.7962 32.0879 27.6333 32.0907 27.4808 32.0935C26.1229 32.1171 25.3686 32.1303 24.5484 30.988C24.1868 30.4842 23.7085 30.0699 23.1538 29.7846C22.6208 29.5105 22.0144 29.3561 21.3703 29.3561C20.2912 29.3561 19.3137 29.794 18.6065 30.5012ZM15.2212 32.7066C15.4284 32.7066 15.596 32.8742 15.596 33.0813C15.596 33.2885 15.4284 33.4561 15.2212 33.4561L6.94305 33.4363C6.73588 33.4363 6.56827 33.2687 6.56827 33.0616C6.56827 32.8544 6.73588 32.6868 6.94305 32.6868L15.2212 32.7066ZM41.085 33.4571C40.8779 33.4571 40.7103 33.2894 40.7103 33.0823C40.7103 32.8751 40.8779 32.7075 41.085 32.7075L49.3632 32.6877C49.5704 32.6877 49.738 32.8553 49.738 33.0625C49.738 33.2697 49.5704 33.4373 49.3632 33.4373L41.085 33.4571ZM28.8528 42.773C28.7897 42.82 28.7115 42.8483 28.6268 42.8474L28.1757 42.8455L27.7247 42.8474C27.6399 42.8474 27.5618 42.82 27.4987 42.773C27.4036 42.7042 27.3424 42.5931 27.3433 42.4669C27.3442 42.2598 27.5128 42.0921 27.72 42.0931L28.1757 42.095L28.6315 42.0931C28.8387 42.0921 29.0072 42.2598 29.0082 42.4669C29.0091 42.5931 28.947 42.7042 28.8528 42.773ZM23.086 42.0752C23.2932 42.0761 23.4608 42.2447 23.4599 42.4519C23.4589 42.659 23.2904 42.8266 23.0832 42.8257L15.5847 42.7965C15.3776 42.7956 15.2099 42.627 15.2109 42.4198C15.2118 42.2127 15.3804 42.0451 15.5875 42.046L23.086 42.0752ZM33.2692 42.8257C33.062 42.8266 32.8935 42.659 32.8925 42.4519C32.8916 42.2447 33.0592 42.0761 33.2664 42.0752L40.7649 42.046C40.972 42.0451 41.1406 42.2127 41.1415 42.4198C41.1425 42.627 40.9749 42.7956 40.7677 42.7965L33.2692 42.8257ZM15.2212 13.1651C15.4284 13.1651 15.596 13.3327 15.596 13.5399C15.596 13.747 15.4284 13.9147 15.2212 13.9147L6.94305 13.9344C6.73588 13.9344 6.56827 13.7668 6.56827 13.5597C6.56827 13.3525 6.73588 13.1849 6.94305 13.1849L15.2212 13.1651ZM41.085 13.9156C40.8779 13.9156 40.7103 13.748 40.7103 13.5408C40.7103 13.3337 40.8779 13.166 41.085 13.166L49.3632 13.1858C49.5704 13.1858 49.738 13.3534 49.738 13.5606C49.738 13.7678 49.5704 13.9354 49.3632 13.9354L41.085 13.9156ZM28.6268 3.7748C28.7115 3.7748 28.7897 3.8021 28.8528 3.84919C28.9479 3.91793 29.0091 4.02905 29.0082 4.15523C29.0072 4.3624 28.8387 4.53001 28.6315 4.52907L28.1757 4.52719L27.72 4.52907C27.5128 4.53001 27.3442 4.3624 27.3433 4.15523C27.3424 4.02905 27.4045 3.91793 27.4987 3.84919C27.5618 3.8021 27.6399 3.77385 27.7247 3.7748L28.1757 3.77668L28.6268 3.7748ZM23.0832 3.79645C23.2904 3.79551 23.4589 3.96313 23.4599 4.1703C23.4608 4.37746 23.2932 4.54602 23.086 4.54696L15.5875 4.57615C15.3804 4.5771 15.2118 4.40948 15.2109 4.20231C15.2099 3.99515 15.3776 3.82659 15.5847 3.82565L23.0832 3.79645ZM33.2664 4.54696C33.0592 4.54602 32.8916 4.37746 32.8925 4.1703C32.8935 3.96313 33.062 3.79551 33.2692 3.79645L40.7677 3.82565C40.9749 3.82659 41.1425 3.99515 41.1415 4.20231C41.1406 4.40948 40.972 4.5771 40.7649 4.57615L33.2664 4.54696ZM8.50904 22.9217C8.71621 22.9217 8.88382 23.0893 8.88382 23.2965C8.88382 23.5036 8.71621 23.6713 8.50904 23.6713L0.576443 23.6854C0.369277 23.6854 0.20166 23.5178 0.20166 23.3106C0.20166 23.1034 0.369277 22.9358 0.576443 22.9358L8.50904 22.9217Z" stroke="#07FBFF" stroke-width="0.403254" mask="url(#path-3-outside-2_463_973)"/>
</svg>
