<svg width="160" height="22" viewBox="0 0 160 22" fill="none" xmlns="http://www.w3.org/2000/svg">
<mask id="mask0_1368_36" style="mask-type:luminance" maskUnits="userSpaceOnUse" x="7" y="1" width="14" height="20">
<path d="M7.09375 1.57144H20.0789V20.4286H7.09375V1.57144Z" fill="white"/>
</mask>
<g mask="url(#mask0_1368_36)">
<path d="M10.8614 5.62215C10.9198 5.68056 10.9934 5.71017 11.067 5.71017H12.8283C12.9019 5.71017 12.9756 5.68056 13.034 5.62215L13.5181 5.13641C13.6653 5.21003 13.827 5.25405 14.003 5.25405C14.5752 5.25405 15.0305 4.79792 15.0305 4.22337C15.0305 3.64961 14.5752 3.19348 14.003 3.19348C13.4301 3.19348 12.9756 3.64961 12.9756 4.22337C12.9756 4.40021 13.0196 4.56186 13.0924 4.7091L12.7107 5.12121H11.1847L10.186 4.12094V2.17801H11.0374C11.067 2.17801 11.0966 2.19241 11.1255 2.17801C13.7382 2.07478 16.4245 3.2671 17.7313 5.71017H16.7478C16.6158 5.28365 16.2341 4.97397 15.7643 4.97397C15.1922 4.97397 14.7368 5.43089 14.7368 6.00465C14.7368 6.47518 15.0449 6.85848 15.4706 6.99052V9.68405H13.2684C13.1076 9.68405 12.9756 9.81689 12.9756 9.97853V11.5974H12.3882V9.83129C12.3882 9.74327 12.3442 9.66965 12.285 9.61043L11.3607 8.81582V6.88729H12.5642L12.9604 7.285C12.8875 7.43224 12.8427 7.59388 12.8427 7.77073C12.8427 8.34449 13.298 8.80061 13.871 8.80061C14.4432 8.80061 14.8985 8.34449 14.8985 7.77073C14.8985 7.19698 14.4432 6.74085 13.871 6.74085C13.6942 6.74085 13.5333 6.78486 13.3861 6.85848L12.9019 6.37275C12.8283 6.32874 12.7547 6.29913 12.6819 6.29913H11.067C10.9054 6.29913 10.7734 6.43117 10.7734 6.59361V8.94785C10.7734 9.03668 10.8174 9.1103 10.8758 9.16871L11.8008 9.96333V11.5974H10.6269C10.5533 11.5974 10.4797 11.627 10.4213 11.6854L8.07262 14.0404C8.01341 14.0997 7.9846 14.1733 7.9846 14.2469V16.646C7.55888 16.778 7.25 17.1605 7.25 17.6318C7.25 18.2056 7.70532 18.6617 8.27828 18.6617C8.85044 18.6617 9.30576 18.2056 9.30576 17.6318C9.30576 17.1605 8.99688 16.778 8.57116 16.646V14.3645L10.7438 12.1863H16.058C16.1756 12.1863 16.2781 12.1271 16.3221 12.0239L17.2031 10.2578C17.2175 10.2138 17.2319 10.1698 17.2319 10.1258V9.09509H18.5243V10.3026L18.1426 11.1413C18.113 11.2149 18.113 11.2885 18.1274 11.3621L19.4197 14.8207C19.4197 14.8351 19.4197 14.8503 19.4197 14.8647C19.4045 14.8799 19.4045 14.8799 19.3901 14.8799H18.1274C18.0393 14.8799 17.9513 14.9239 17.8929 14.9975C17.8337 15.0711 17.8193 15.1736 17.8489 15.2624L18.201 16.2923L17.5256 16.5283C17.4376 16.5571 17.364 16.6307 17.3352 16.7196C17.3055 16.8076 17.3199 16.9108 17.3792 16.9844L17.8193 17.5878L17.4376 17.8823C17.364 17.9407 17.3199 18.0295 17.3199 18.1176V18.8682C17.3199 19.2067 17.1439 19.5307 16.8502 19.6924C16.7182 19.7804 16.5573 19.8244 16.3957 19.8244C15.177 19.8396 10.4797 18.2944 10.4797 15.7185V15.0999C10.4797 14.9383 10.3476 14.8063 10.186 14.8063C10.0244 14.8063 9.89232 14.9383 9.89232 15.0999V15.7185C9.89232 18.8538 15.1626 20.4286 16.4101 20.4286C16.6742 20.4286 16.9382 20.355 17.1591 20.2221C17.6288 19.9429 17.9073 19.4419 17.9073 18.8826V18.2648L18.3922 17.8823C18.5091 17.7791 18.5387 17.6022 18.4507 17.4846L18.0834 16.9692L18.6707 16.7636C18.8172 16.7044 18.906 16.5427 18.8468 16.3955L18.5387 15.468H19.3901C19.5958 15.468 19.7862 15.3656 19.9039 15.2032C20.0215 15.0271 20.0503 14.8063 19.9775 14.615L18.7291 11.2733L19.082 10.4939C19.0964 10.4491 19.1108 10.4203 19.1108 10.3754V8.7566C19.0228 6.53439 18.113 4.66509 16.4981 3.34072C15.0305 2.134 13.1364 1.53063 11.1255 1.58905C11.1111 1.58905 11.0814 1.58905 11.067 1.58905H9.89232C9.73148 1.58905 9.59864 1.72188 9.59864 1.88353V4.23857C9.59864 4.31219 9.62825 4.38581 9.68746 4.44423L10.8614 5.62215ZM14.003 3.79685C14.2527 3.79685 14.4432 3.9881 14.4432 4.23857C14.4432 4.48824 14.2527 4.68029 14.003 4.68029C13.7534 4.68029 13.5621 4.48824 13.5621 4.23857C13.5621 3.9881 13.7534 3.79685 14.003 3.79685ZM13.8558 7.32901C14.1055 7.32901 14.2967 7.52026 14.2967 7.77073C14.2967 8.0212 14.1055 8.21245 13.8558 8.21245C13.6061 8.21245 13.4157 8.0212 13.4157 7.77073C13.4157 7.52026 13.6061 7.32901 13.8558 7.32901ZM8.7184 17.6318C8.7184 17.8823 8.52715 18.0735 8.27828 18.0735C8.02861 18.0735 7.83736 17.8823 7.83736 17.6318C7.83736 17.3814 8.02861 17.1901 8.27828 17.1901C8.52715 17.1901 8.7184 17.3814 8.7184 17.6318ZM15.3242 6.00465C15.3242 5.75418 15.5147 5.56293 15.7643 5.56293C16.014 5.56293 16.2044 5.75418 16.2044 6.00465C16.2044 6.25512 16.014 6.44637 15.7643 6.44637C15.5147 6.44637 15.3242 6.25512 15.3242 6.00465ZM18.5091 8.50693H16.9382C16.7774 8.50693 16.6454 8.63897 16.6454 8.80061V10.0522L15.882 11.5974H13.5621V10.273H15.7643C15.926 10.273 16.058 10.1402 16.058 9.97853V6.99052C16.3957 6.88729 16.6454 6.62242 16.7478 6.29913H18.0105C18.2746 6.96091 18.4507 7.69711 18.5091 8.50693Z" fill="#07FBFF"/>
</g>
<path d="M2.99241 3.6056V6.15189C2.99241 6.23992 3.03642 6.32874 3.09484 6.38716L4.70968 7.68271C4.72409 7.69712 4.73929 7.69712 4.75369 7.71152V10.8612C4.75369 10.9348 4.7833 10.994 4.82731 11.0532L5.63473 11.9951V14.4382C5.20902 14.5702 4.90013 14.9535 4.90013 15.424C4.90013 15.9978 5.35546 16.4547 5.92761 16.4547C6.50057 16.4547 6.95589 15.9978 6.95589 15.424C6.95589 14.9535 6.64701 14.5702 6.22129 14.4382V11.8919C6.22129 11.8182 6.19249 11.759 6.14847 11.7006L5.34105 10.7588V4.29699L6.80865 5.13642V5.73978C6.38294 5.87182 6.07485 6.25512 6.07485 6.72565C6.07485 7.29941 6.53018 7.75633 7.10233 7.75633C7.67449 7.75633 8.12981 7.29941 8.12981 6.72565C8.12981 6.25512 7.82173 5.87182 7.39601 5.73978V4.97397C7.39601 4.87155 7.3368 4.76832 7.24877 4.72431L5.19381 3.54638C5.10579 3.48797 4.98816 3.48797 4.90013 3.54638C4.81211 3.6056 4.75369 3.69362 4.75369 3.79685V6.96092L3.57897 6.00465V3.6056C4.00469 3.47276 4.31357 3.09026 4.31357 2.61973C4.31357 2.04517 3.85825 1.58905 3.28609 1.58905C2.71314 1.58905 2.25781 2.04517 2.25781 2.61973C2.25781 3.09026 2.5667 3.47276 2.99241 3.6056ZM6.36853 15.424C6.36853 15.6745 6.17728 15.8657 5.92761 15.8657C5.67875 15.8657 5.48749 15.6745 5.48749 15.424C5.48749 15.1736 5.67875 14.9823 5.92761 14.9823C6.17728 14.9823 6.36853 15.1736 6.36853 15.424ZM7.54245 6.74086C7.54245 6.99052 7.352 7.18178 7.10233 7.18178C6.85267 7.18178 6.66221 6.99052 6.66221 6.74086C6.66221 6.49039 6.85267 6.29913 7.10233 6.29913C7.352 6.29913 7.54245 6.49039 7.54245 6.74086ZM3.28609 2.17801C3.53496 2.17801 3.72621 2.36926 3.72621 2.61973C3.72621 2.8694 3.53496 3.06065 3.28609 3.06065C3.03642 3.06065 2.84517 2.8694 2.84517 2.61973C2.84517 2.36926 3.03642 2.17801 3.28609 2.17801Z" fill="#07FBFF"/>
<path d="M9.60069 6.2695V10.5819L7.39929 12.7897V10.6699C7.825 10.5379 8.13309 10.1554 8.13309 9.68403C8.13309 9.11028 7.67776 8.65415 7.10561 8.65415C6.53345 8.65415 6.07812 9.11028 6.07812 9.68403C6.07812 10.1554 6.38621 10.5379 6.81193 10.6699V13.5107C6.81193 13.6283 6.88555 13.7315 6.98797 13.7755C7.03199 13.8052 7.06159 13.8052 7.10561 13.8052C7.17923 13.8052 7.25205 13.7755 7.31126 13.7171L10.1 10.9204C10.1592 10.8612 10.188 10.7875 10.188 10.7147V6.15187C10.188 6.07825 10.1592 6.00463 10.1 5.94541L9.01413 4.85632V2.61971C9.01413 2.45726 8.88209 2.32523 8.72045 2.32523C8.5588 2.32523 8.42677 2.45726 8.42677 2.61971V4.97395C8.42677 5.04757 8.45637 5.12119 8.51479 5.1804L9.60069 6.2695ZM7.10561 10.1258C6.85594 10.1258 6.66549 9.9345 6.66549 9.68403C6.66549 9.43356 6.85594 9.24231 7.10561 9.24231C7.35527 9.24231 7.54573 9.43356 7.54573 9.68403C7.54573 9.9345 7.35527 10.1258 7.10561 10.1258Z" fill="#07FBFF"/>
<mask id="mask1_1368_36" style="mask-type:luminance" maskUnits="userSpaceOnUse" x="2" y="8" width="3" height="7">
<path d="M2.09375 8.33167H4.21673V14.4773H2.09375V8.33167Z" fill="white"/>
</mask>
<g mask="url(#mask1_1368_36)">
<path d="M2.11719 13.3635C2.11719 13.9373 2.57251 14.3942 3.14467 14.3942C3.71762 14.3942 4.17215 13.9373 4.17215 13.3635C4.17215 12.893 3.86406 12.5097 3.43835 12.3776V10.3755C3.86406 10.2435 4.17215 9.86095 4.17215 9.38962C4.17215 8.81587 3.71762 8.35974 3.14467 8.35974C2.57251 8.35974 2.11719 8.81587 2.11719 9.38962C2.11719 9.86095 2.42527 10.2435 2.85099 10.3755V12.3776C2.42527 12.5097 2.11719 12.893 2.11719 13.3635ZM2.70455 9.38962C2.70455 9.13995 2.895 8.9479 3.14467 8.9479C3.39434 8.9479 3.58479 9.13995 3.58479 9.38962C3.58479 9.64009 3.39434 9.83134 3.14467 9.83134C2.895 9.83134 2.70455 9.64009 2.70455 9.38962ZM3.14467 12.9218C3.39434 12.9218 3.58479 13.113 3.58479 13.3635C3.58479 13.614 3.39434 13.8052 3.14467 13.8052C2.895 13.8052 2.70455 13.614 2.70455 13.3635C2.70455 13.113 2.895 12.9218 3.14467 12.9218Z" fill="#07FBFF"/>
</g>
<path d="M30.672 17.16C29.8827 17.16 29.1893 17.0427 28.592 16.808C27.9947 16.5733 27.4187 16.2 26.864 15.688C26.7893 15.6133 26.7253 15.5333 26.672 15.448C26.6293 15.352 26.608 15.2507 26.608 15.144C26.608 14.9733 26.6667 14.824 26.784 14.696C26.912 14.5573 27.0667 14.488 27.248 14.488C27.3973 14.488 27.5307 14.5467 27.648 14.664C28.064 15.0693 28.512 15.3787 28.992 15.592C29.4827 15.8053 30.032 15.912 30.64 15.912C31.1093 15.912 31.5307 15.8373 31.904 15.688C32.288 15.5387 32.592 15.3307 32.816 15.064C33.04 14.7973 33.152 14.488 33.152 14.136C33.1413 13.7093 33.0133 13.3573 32.768 13.08C32.5333 12.8027 32.2027 12.5733 31.776 12.392C31.36 12.2 30.8747 12.04 30.32 11.912C29.8293 11.7947 29.376 11.6507 28.96 11.48C28.5547 11.3093 28.2027 11.1013 27.904 10.856C27.6053 10.6 27.3707 10.296 27.2 9.944C27.04 9.58133 26.96 9.16 26.96 8.68C26.96 8.072 27.12 7.53867 27.44 7.08C27.76 6.62133 28.2027 6.26933 28.768 6.024C29.3333 5.768 29.984 5.64 30.72 5.64C31.3707 5.64 31.984 5.74667 32.56 5.96C33.1467 6.17333 33.616 6.46667 33.968 6.84C34.1813 7.04267 34.288 7.24 34.288 7.432C34.288 7.592 34.2187 7.74133 34.08 7.88C33.952 8.008 33.8027 8.072 33.632 8.072C33.5147 8.072 33.408 8.02933 33.312 7.944C33.1307 7.74133 32.9013 7.56 32.624 7.4C32.3467 7.24 32.0427 7.112 31.712 7.016C31.3813 6.92 31.0507 6.872 30.72 6.872C30.2293 6.872 29.7973 6.94667 29.424 7.096C29.0507 7.23467 28.7573 7.43733 28.544 7.704C28.3413 7.96 28.24 8.26933 28.24 8.632C28.24 9.03733 28.3573 9.37333 28.592 9.64C28.8267 9.896 29.1413 10.1093 29.536 10.28C29.9307 10.44 30.368 10.584 30.848 10.712C31.3707 10.84 31.8507 10.9893 32.288 11.16C32.736 11.32 33.12 11.5227 33.44 11.768C33.76 12.0133 34.0053 12.328 34.176 12.712C34.3573 13.0853 34.448 13.5493 34.448 14.104C34.448 14.6907 34.2827 15.2133 33.952 15.672C33.6213 16.1307 33.168 16.4933 32.592 16.76C32.0267 17.016 31.3867 17.1493 30.672 17.16ZM42.5635 8.6C42.7448 8.6 42.8942 8.664 43.0115 8.792C43.1395 8.90933 43.2035 9.05867 43.2035 9.24V16.216C43.2035 17.112 43.0275 17.8533 42.6755 18.44C42.3235 19.0373 41.8488 19.48 41.2515 19.768C40.6648 20.056 39.9982 20.2 39.2515 20.2C38.8355 20.2 38.4355 20.1573 38.0515 20.072C37.6675 19.9867 37.3528 19.8747 37.1075 19.736C36.9048 19.64 36.7608 19.5173 36.6755 19.368C36.6008 19.2293 36.5902 19.08 36.6435 18.92C36.7182 18.728 36.8248 18.5947 36.9635 18.52C37.1128 18.4453 37.2675 18.4453 37.4275 18.52C37.5982 18.5947 37.8435 18.696 38.1635 18.824C38.4942 18.9627 38.8622 19.032 39.2675 19.032C39.8222 19.032 40.2968 18.9253 40.6915 18.712C41.0862 18.4987 41.3902 18.184 41.6035 17.768C41.8168 17.3627 41.9235 16.856 41.9235 16.248V15.112L42.1155 15.512C41.9448 15.8427 41.7155 16.1307 41.4275 16.376C41.1395 16.6213 40.8088 16.8133 40.4355 16.952C40.0622 17.0907 39.6515 17.16 39.2035 17.16C38.5955 17.16 38.0782 17.032 37.6515 16.776C37.2355 16.5093 36.9155 16.1467 36.6915 15.688C36.4782 15.2187 36.3715 14.68 36.3715 14.072V9.24C36.3715 9.05867 36.4302 8.90933 36.5475 8.792C36.6755 8.664 36.8302 8.6 37.0115 8.6C37.2035 8.6 37.3582 8.664 37.4755 8.792C37.5928 8.90933 37.6515 9.05867 37.6515 9.24V13.784C37.6515 14.5093 37.8115 15.0587 38.1315 15.432C38.4515 15.7947 38.9475 15.976 39.6195 15.976C40.0462 15.976 40.4302 15.88 40.7715 15.688C41.1235 15.496 41.4008 15.2347 41.6035 14.904C41.8168 14.5627 41.9235 14.1893 41.9235 13.784V9.24C41.9235 9.05867 41.9822 8.90933 42.0995 8.792C42.2168 8.664 42.3715 8.6 42.5635 8.6ZM49.3205 17.16C48.4672 17.16 47.7205 16.9787 47.0805 16.616C46.4405 16.2533 45.9392 15.7573 45.5765 15.128C45.2245 14.488 45.0485 13.752 45.0485 12.92C45.0485 11.992 45.2298 11.2027 45.5925 10.552C45.9658 9.89067 46.4458 9.38933 47.0325 9.048C47.6298 8.696 48.2592 8.52 48.9205 8.52C49.4112 8.52 49.8858 8.61067 50.3445 8.792C50.8032 8.97333 51.2085 9.24 51.5605 9.592C51.9125 9.93333 52.1952 10.3493 52.4085 10.84C52.6218 11.32 52.7338 11.8587 52.7445 12.456C52.7445 12.6267 52.6805 12.7707 52.5525 12.888C52.4245 13.0053 52.2752 13.064 52.1045 13.064H45.7845L45.4965 11.96H51.6565L51.4005 12.184V11.832C51.3578 11.3947 51.2085 11.0213 50.9525 10.712C50.7072 10.392 50.4032 10.1467 50.0405 9.976C49.6885 9.80533 49.3152 9.72 48.9205 9.72C48.6005 9.72 48.2805 9.77867 47.9605 9.896C47.6512 10.0027 47.3685 10.184 47.1125 10.44C46.8672 10.6853 46.6645 11.0053 46.5045 11.4C46.3552 11.7947 46.2805 12.2693 46.2805 12.824C46.2805 13.4427 46.4032 13.9867 46.6485 14.456C46.9045 14.9253 47.2565 15.2987 47.7045 15.576C48.1525 15.8427 48.6752 15.976 49.2725 15.976C49.6458 15.976 49.9712 15.928 50.2485 15.832C50.5258 15.736 50.7658 15.6187 50.9685 15.48C51.1712 15.3307 51.3418 15.1813 51.4805 15.032C51.6192 14.936 51.7525 14.888 51.8805 14.888C52.0405 14.888 52.1685 14.9413 52.2645 15.048C52.3712 15.1547 52.4245 15.2827 52.4245 15.432C52.4245 15.6133 52.3392 15.7733 52.1685 15.912C51.8698 16.2427 51.4645 16.536 50.9525 16.792C50.4405 17.0373 49.8965 17.16 49.3205 17.16ZM61.4844 5.16C61.6657 5.16 61.815 5.224 61.9324 5.352C62.0604 5.46933 62.1244 5.61867 62.1244 5.8V16.344C62.1244 16.5253 62.0604 16.68 61.9324 16.808C61.815 16.936 61.6657 17 61.4844 17C61.2924 17 61.1377 16.936 61.0204 16.808C60.903 16.68 60.8444 16.5253 60.8444 16.344V14.824L61.1484 14.712C61.1484 14.968 61.0684 15.24 60.9084 15.528C60.7484 15.8053 60.5297 16.0667 60.2524 16.312C59.975 16.5573 59.6444 16.76 59.2604 16.92C58.887 17.08 58.4817 17.16 58.0444 17.16C57.3297 17.16 56.679 16.9733 56.0924 16.6C55.5164 16.2267 55.0577 15.7147 54.7164 15.064C54.3857 14.4133 54.2204 13.672 54.2204 12.84C54.2204 11.9973 54.3857 11.2507 54.7164 10.6C55.0577 9.94933 55.5164 9.44267 56.0924 9.08C56.6684 8.70667 57.3084 8.52 58.0124 8.52C58.4604 8.52 58.8817 8.59467 59.2764 8.744C59.671 8.89333 60.0124 9.096 60.3004 9.352C60.599 9.608 60.8337 9.89067 61.0044 10.2C61.175 10.5093 61.2604 10.8187 61.2604 11.128L60.8444 11.032V5.8C60.8444 5.61867 60.903 5.46933 61.0204 5.352C61.1377 5.224 61.2924 5.16 61.4844 5.16ZM58.1884 15.976C58.7217 15.976 59.191 15.8427 59.5964 15.576C60.0124 15.2987 60.3324 14.9253 60.5564 14.456C60.791 13.976 60.9084 13.4373 60.9084 12.84C60.9084 12.232 60.791 11.6933 60.5564 11.224C60.3324 10.7547 60.0124 10.3867 59.5964 10.12C59.191 9.84267 58.7217 9.704 58.1884 9.704C57.6657 9.704 57.1964 9.84267 56.7804 10.12C56.375 10.3867 56.055 10.7547 55.8204 11.224C55.5857 11.6933 55.4684 12.232 55.4684 12.84C55.4684 13.4267 55.5857 13.96 55.8204 14.44C56.055 14.9093 56.375 15.2827 56.7804 15.56C57.1964 15.8373 57.6657 15.976 58.1884 15.976ZM69.7828 17C69.5908 17 69.4308 16.936 69.3028 16.808C69.1854 16.68 69.1268 16.5253 69.1268 16.344V6.44C69.1268 6.25867 69.1854 6.10933 69.3028 5.992C69.4308 5.864 69.5854 5.8 69.7668 5.8H75.3828C75.5641 5.8 75.7188 5.85867 75.8468 5.976C75.9748 6.09333 76.0388 6.24267 76.0388 6.424C76.0388 6.59467 75.9748 6.73867 75.8468 6.856C75.7188 6.97333 75.5641 7.032 75.3828 7.032H70.3428L70.4388 6.904V10.824L70.3588 10.648H74.6628C74.8441 10.648 74.9988 10.712 75.1268 10.84C75.2548 10.9573 75.3188 11.1067 75.3188 11.288C75.3188 11.448 75.2548 11.592 75.1268 11.72C74.9988 11.8373 74.8441 11.896 74.6628 11.896H70.3268L70.4388 11.752V16.344C70.4388 16.5253 70.3748 16.68 70.2468 16.808C70.1188 16.936 69.9641 17 69.7828 17ZM84.4531 8.648C84.6345 8.648 84.7838 8.712 84.9011 8.84C85.0291 8.95733 85.0931 9.10667 85.0931 9.288V16.344C85.0931 16.5253 85.0291 16.68 84.9011 16.808C84.7838 16.936 84.6345 17 84.4531 17C84.2611 17 84.1065 16.936 83.9891 16.808C83.8718 16.68 83.8131 16.5253 83.8131 16.344V14.824L84.1171 14.792C84.1171 15.0267 84.0371 15.2827 83.8771 15.56C83.7171 15.8373 83.4985 16.0987 83.2211 16.344C82.9438 16.5787 82.6131 16.776 82.2291 16.936C81.8558 17.0853 81.4505 17.16 81.0131 17.16C80.2878 17.16 79.6371 16.9733 79.0611 16.6C78.4851 16.216 78.0265 15.6987 77.6851 15.048C77.3545 14.3973 77.1891 13.656 77.1891 12.824C77.1891 11.9813 77.3545 11.24 77.6851 10.6C78.0265 9.94933 78.4851 9.44267 79.0611 9.08C79.6371 8.70667 80.2771 8.52 80.9811 8.52C81.4398 8.52 81.8665 8.59467 82.2611 8.744C82.6558 8.89333 82.9971 9.096 83.2851 9.352C83.5838 9.608 83.8131 9.89067 83.9731 10.2C84.1438 10.5093 84.2291 10.8187 84.2291 11.128L83.8131 11.032V9.288C83.8131 9.10667 83.8718 8.95733 83.9891 8.84C84.1065 8.712 84.2611 8.648 84.4531 8.648ZM81.1571 15.976C81.6905 15.976 82.1598 15.8373 82.5651 15.56C82.9811 15.2827 83.3011 14.9093 83.5251 14.44C83.7598 13.96 83.8771 13.4213 83.8771 12.824C83.8771 12.2373 83.7598 11.7093 83.5251 11.24C83.3011 10.76 82.9811 10.3867 82.5651 10.12C82.1598 9.84267 81.6905 9.704 81.1571 9.704C80.6345 9.704 80.1651 9.83733 79.7491 10.104C79.3438 10.3707 79.0238 10.7387 78.7891 11.208C78.5545 11.6773 78.4371 12.216 78.4371 12.824C78.4371 13.4213 78.5491 13.96 78.7731 14.44C79.0078 14.9093 79.3278 15.2827 79.7331 15.56C80.1491 15.8373 80.6238 15.976 81.1571 15.976ZM88.1053 17C87.9239 17 87.7693 16.936 87.6413 16.808C87.5239 16.68 87.4653 16.5253 87.4653 16.344V9.368C87.4653 9.18667 87.5239 9.03733 87.6413 8.92C87.7693 8.792 87.9239 8.728 88.1053 8.728C88.2973 8.728 88.4519 8.792 88.5693 8.92C88.6866 9.03733 88.7453 9.18667 88.7453 9.368V11.48L88.5533 11.144C88.6173 10.8133 88.7293 10.4933 88.8893 10.184C89.0599 9.864 89.2733 9.58133 89.5293 9.336C89.7853 9.08 90.0786 8.88267 90.4093 8.744C90.7399 8.59467 91.1026 8.52 91.4973 8.52C91.7319 8.52 91.9453 8.57867 92.1373 8.696C92.3399 8.80267 92.4413 8.95733 92.4413 9.16C92.4413 9.384 92.3826 9.54933 92.2653 9.656C92.1479 9.76267 92.0146 9.816 91.8653 9.816C91.7266 9.816 91.5933 9.78933 91.4653 9.736C91.3373 9.672 91.1773 9.64 90.9852 9.64C90.7186 9.64 90.4519 9.71467 90.1853 9.864C89.9293 10.0027 89.6893 10.2053 89.4653 10.472C89.2519 10.7387 89.0759 11.0427 88.9373 11.384C88.8093 11.7147 88.7453 12.072 88.7453 12.456V16.344C88.7453 16.5253 88.6813 16.68 88.5533 16.808C88.4359 16.936 88.2866 17 88.1053 17ZM100.516 8.648C100.697 8.648 100.846 8.712 100.964 8.84C101.092 8.95733 101.156 9.10667 101.156 9.288V16.344C101.156 16.5253 101.092 16.68 100.964 16.808C100.846 16.936 100.697 17 100.516 17C100.324 17 100.169 16.936 100.052 16.808C99.9343 16.68 99.8756 16.5253 99.8756 16.344V14.824L100.18 14.792C100.18 15.0267 100.1 15.2827 99.9396 15.56C99.7796 15.8373 99.561 16.0987 99.2836 16.344C99.0063 16.5787 98.6756 16.776 98.2916 16.936C97.9183 17.0853 97.513 17.16 97.0756 17.16C96.3503 17.16 95.6996 16.9733 95.1236 16.6C94.5476 16.216 94.089 15.6987 93.7476 15.048C93.417 14.3973 93.2516 13.656 93.2516 12.824C93.2516 11.9813 93.417 11.24 93.7476 10.6C94.089 9.94933 94.5476 9.44267 95.1236 9.08C95.6996 8.70667 96.3396 8.52 97.0436 8.52C97.5023 8.52 97.929 8.59467 98.3236 8.744C98.7183 8.89333 99.0596 9.096 99.3476 9.352C99.6463 9.608 99.8756 9.89067 100.036 10.2C100.206 10.5093 100.292 10.8187 100.292 11.128L99.8756 11.032V9.288C99.8756 9.10667 99.9343 8.95733 100.052 8.84C100.169 8.712 100.324 8.648 100.516 8.648ZM97.2196 15.976C97.753 15.976 98.2223 15.8373 98.6276 15.56C99.0436 15.2827 99.3636 14.9093 99.5876 14.44C99.8223 13.96 99.9396 13.4213 99.9396 12.824C99.9396 12.2373 99.8223 11.7093 99.5876 11.24C99.3636 10.76 99.0436 10.3867 98.6276 10.12C98.2223 9.84267 97.753 9.704 97.2196 9.704C96.697 9.704 96.2276 9.83733 95.8116 10.104C95.4063 10.3707 95.0863 10.7387 94.8516 11.208C94.617 11.6773 94.4996 12.216 94.4996 12.824C94.4996 13.4213 94.6116 13.96 94.8356 14.44C95.0703 14.9093 95.3903 15.2827 95.7956 15.56C96.2116 15.8373 96.6863 15.976 97.2196 15.976ZM108.776 15.816C108.946 15.816 109.09 15.8747 109.208 15.992C109.325 16.0987 109.384 16.2373 109.384 16.408C109.384 16.568 109.325 16.7067 109.208 16.824C109.09 16.9413 108.946 17 108.776 17H103.592C103.4 17 103.25 16.9307 103.144 16.792C103.037 16.6533 102.984 16.5253 102.984 16.408C102.994 16.3013 103.01 16.2107 103.032 16.136C103.053 16.0613 103.101 15.976 103.176 15.88L107.752 9.688L107.768 9.864H103.896C103.725 9.864 103.581 9.80533 103.464 9.688C103.346 9.57067 103.288 9.42667 103.288 9.256C103.288 9.096 103.346 8.96267 103.464 8.856C103.581 8.73867 103.725 8.68 103.896 8.68H108.808C108.978 8.68 109.117 8.744 109.224 8.872C109.341 8.98933 109.4 9.13867 109.4 9.32C109.389 9.39467 109.373 9.46933 109.352 9.544C109.33 9.608 109.288 9.688 109.224 9.784L104.696 15.896L104.584 15.816H108.776ZM116.517 5.784C116.613 5.784 116.714 5.81067 116.821 5.864C116.938 5.91733 117.029 5.98667 117.093 6.072L121.333 12.488L120.773 12.472L125.061 6.072C125.2 5.86933 125.381 5.77333 125.605 5.784C125.776 5.79467 125.925 5.85867 126.053 5.976C126.181 6.09333 126.245 6.248 126.245 6.44V16.344C126.245 16.5253 126.181 16.68 126.053 16.808C125.925 16.936 125.765 17 125.573 17C125.381 17 125.221 16.936 125.093 16.808C124.965 16.68 124.901 16.5253 124.901 16.344V7.656L125.301 7.736L121.525 13.48C121.461 13.5547 121.381 13.6187 121.285 13.672C121.2 13.7253 121.109 13.752 121.013 13.752C120.917 13.752 120.821 13.7253 120.725 13.672C120.629 13.6187 120.549 13.5547 120.485 13.48L116.757 7.736L117.093 7.32V16.344C117.093 16.5253 117.034 16.68 116.917 16.808C116.8 16.936 116.65 17 116.469 17C116.288 17 116.138 16.936 116.021 16.808C115.914 16.68 115.861 16.5253 115.861 16.344V6.44C115.861 6.26933 115.92 6.12 116.037 5.992C116.165 5.85333 116.325 5.784 116.517 5.784ZM132.649 17.16C131.795 17.16 131.049 16.9787 130.409 16.616C129.769 16.2533 129.267 15.7573 128.905 15.128C128.553 14.488 128.377 13.752 128.377 12.92C128.377 11.992 128.558 11.2027 128.921 10.552C129.294 9.89067 129.774 9.38933 130.361 9.048C130.958 8.696 131.587 8.52 132.249 8.52C132.739 8.52 133.214 8.61067 133.673 8.792C134.131 8.97333 134.537 9.24 134.889 9.592C135.241 9.93333 135.523 10.3493 135.737 10.84C135.95 11.32 136.062 11.8587 136.073 12.456C136.073 12.6267 136.009 12.7707 135.881 12.888C135.753 13.0053 135.603 13.064 135.433 13.064H129.113L128.825 11.96H134.985L134.729 12.184V11.832C134.686 11.3947 134.537 11.0213 134.281 10.712C134.035 10.392 133.731 10.1467 133.369 9.976C133.017 9.80533 132.643 9.72 132.249 9.72C131.929 9.72 131.609 9.77867 131.289 9.896C130.979 10.0027 130.697 10.184 130.441 10.44C130.195 10.6853 129.993 11.0053 129.833 11.4C129.683 11.7947 129.609 12.2693 129.609 12.824C129.609 13.4427 129.731 13.9867 129.977 14.456C130.233 14.9253 130.585 15.2987 131.033 15.576C131.481 15.8427 132.003 15.976 132.601 15.976C132.974 15.976 133.299 15.928 133.577 15.832C133.854 15.736 134.094 15.6187 134.297 15.48C134.499 15.3307 134.67 15.1813 134.809 15.032C134.947 14.936 135.081 14.888 135.209 14.888C135.369 14.888 135.497 14.9413 135.593 15.048C135.699 15.1547 135.753 15.2827 135.753 15.432C135.753 15.6133 135.667 15.7733 135.497 15.912C135.198 16.2427 134.793 16.536 134.281 16.792C133.769 17.0373 133.225 17.16 132.649 17.16ZM141.997 8.6C142.701 8.6 143.255 8.75467 143.661 9.064C144.077 9.36267 144.37 9.768 144.541 10.28C144.722 10.7813 144.812 11.3413 144.812 11.96V16.344C144.812 16.5253 144.749 16.68 144.621 16.808C144.503 16.936 144.354 17 144.173 17C143.991 17 143.837 16.936 143.709 16.808C143.591 16.68 143.533 16.5253 143.533 16.344V11.96C143.533 11.5547 143.474 11.192 143.357 10.872C143.239 10.5413 143.042 10.28 142.765 10.088C142.498 9.88533 142.13 9.784 141.661 9.784C141.223 9.784 140.823 9.88533 140.461 10.088C140.098 10.28 139.81 10.5413 139.597 10.872C139.383 11.192 139.277 11.5547 139.277 11.96V16.344C139.277 16.5253 139.213 16.68 139.085 16.808C138.967 16.936 138.818 17 138.637 17C138.455 17 138.301 16.936 138.173 16.808C138.055 16.68 137.997 16.5253 137.997 16.344V5.8C137.997 5.61867 138.055 5.46933 138.173 5.352C138.301 5.224 138.455 5.16 138.637 5.16C138.829 5.16 138.983 5.224 139.101 5.352C139.218 5.46933 139.277 5.61867 139.277 5.8V10.584L138.957 10.936C139.01 10.6587 139.127 10.3813 139.309 10.104C139.49 9.816 139.719 9.56 139.997 9.336C140.274 9.112 140.583 8.936 140.924 8.808C141.266 8.66933 141.623 8.6 141.997 8.6ZM154 5.16C154.181 5.16 154.331 5.224 154.448 5.352C154.576 5.46933 154.64 5.61867 154.64 5.8V16.344C154.64 16.5253 154.576 16.68 154.448 16.808C154.331 16.936 154.181 17 154 17C153.808 17 153.653 16.936 153.536 16.808C153.419 16.68 153.36 16.5253 153.36 16.344V14.824L153.664 14.712C153.664 14.968 153.584 15.24 153.424 15.528C153.264 15.8053 153.045 16.0667 152.768 16.312C152.491 16.5573 152.16 16.76 151.776 16.92C151.403 17.08 150.997 17.16 150.56 17.16C149.845 17.16 149.195 16.9733 148.608 16.6C148.032 16.2267 147.573 15.7147 147.232 15.064C146.901 14.4133 146.736 13.672 146.736 12.84C146.736 11.9973 146.901 11.2507 147.232 10.6C147.573 9.94933 148.032 9.44267 148.608 9.08C149.184 8.70667 149.824 8.52 150.528 8.52C150.976 8.52 151.397 8.59467 151.792 8.744C152.187 8.89333 152.528 9.096 152.816 9.352C153.115 9.608 153.349 9.89067 153.52 10.2C153.691 10.5093 153.776 10.8187 153.776 11.128L153.36 11.032V5.8C153.36 5.61867 153.419 5.46933 153.536 5.352C153.653 5.224 153.808 5.16 154 5.16ZM150.704 15.976C151.237 15.976 151.707 15.8427 152.112 15.576C152.528 15.2987 152.848 14.9253 153.072 14.456C153.307 13.976 153.424 13.4373 153.424 12.84C153.424 12.232 153.307 11.6933 153.072 11.224C152.848 10.7547 152.528 10.3867 152.112 10.12C151.707 9.84267 151.237 9.704 150.704 9.704C150.181 9.704 149.712 9.84267 149.296 10.12C148.891 10.3867 148.571 10.7547 148.336 11.224C148.101 11.6933 147.984 12.232 147.984 12.84C147.984 13.4267 148.101 13.96 148.336 14.44C148.571 14.9093 148.891 15.2827 149.296 15.56C149.712 15.8373 150.181 15.976 150.704 15.976ZM158.244 16.344C158.244 16.5253 158.18 16.68 158.052 16.808C157.935 16.936 157.785 17 157.604 17C157.412 17 157.257 16.936 157.14 16.808C157.023 16.68 156.964 16.5253 156.964 16.344V9.24C156.964 9.05867 157.023 8.90933 157.14 8.792C157.268 8.664 157.423 8.6 157.604 8.6C157.785 8.6 157.935 8.664 158.052 8.792C158.18 8.90933 158.244 9.05867 158.244 9.24V16.344ZM157.604 7.528C157.337 7.528 157.14 7.47467 157.012 7.368C156.884 7.26133 156.82 7.096 156.82 6.872V6.648C156.82 6.424 156.889 6.25867 157.028 6.152C157.167 6.04533 157.364 5.992 157.62 5.992C157.876 5.992 158.068 6.04533 158.196 6.152C158.324 6.25867 158.388 6.424 158.388 6.648V6.872C158.388 7.096 158.319 7.26133 158.18 7.368C158.052 7.47467 157.86 7.528 157.604 7.528Z" fill="white"/>
</svg>
