<svg width="18" height="19" viewBox="0 0 18 19" fill="none" xmlns="http://www.w3.org/2000/svg">
<mask id="mask0_1391_11" style="mask-type:luminance" maskUnits="userSpaceOnUse" x="5" y="0" width="13" height="19">
<path d="M5 0H17.9851V18.8571H5V0Z" fill="white"/>
</mask>
<g mask="url(#mask0_1391_11)">
<path d="M8.76764 4.0507C8.82605 4.10912 8.89967 4.13873 8.97329 4.13873H10.7346C10.8082 4.13873 10.8818 4.10912 10.9402 4.0507L11.4244 3.56497C11.5716 3.63859 11.7332 3.6826 11.9093 3.6826C12.4814 3.6826 12.9368 3.22648 12.9368 2.65192C12.9368 2.07817 12.4814 1.62204 11.9093 1.62204C11.3363 1.62204 10.8818 2.07817 10.8818 2.65192C10.8818 2.82877 10.9258 2.99042 10.9986 3.13766L10.6169 3.54977H9.09092L8.09225 2.5495V0.606566H8.94368C8.97329 0.606566 9.0029 0.62097 9.03171 0.606566C11.6444 0.503338 14.3308 1.69566 15.6375 4.13873H14.654C14.522 3.71221 14.1403 3.40253 13.6706 3.40253C13.0984 3.40253 12.6431 3.85945 12.6431 4.43321C12.6431 4.90374 12.9512 5.28704 13.3769 5.41908V8.11261H11.1747C11.0138 8.11261 10.8818 8.24545 10.8818 8.40709V10.0259H10.2945V8.25985C10.2945 8.17183 10.2504 8.09821 10.1912 8.03899L9.26697 7.24438V5.31585H10.4705L10.8666 5.71356C10.7938 5.8608 10.749 6.02244 10.749 6.19929C10.749 6.77305 11.2043 7.22917 11.7773 7.22917C12.3494 7.22917 12.8047 6.77305 12.8047 6.19929C12.8047 5.62553 12.3494 5.16941 11.7773 5.16941C11.6004 5.16941 11.4396 5.21342 11.2923 5.28704L10.8082 4.80131C10.7346 4.7573 10.661 4.72769 10.5881 4.72769H8.97329C8.81165 4.72769 8.67961 4.85973 8.67961 5.02217V7.37641C8.67961 7.46524 8.72362 7.53886 8.78204 7.59727L9.70709 8.39189V10.0259H8.53317C8.45955 10.0259 8.38593 10.0555 8.32751 10.114L5.97887 12.469C5.91966 12.5282 5.89085 12.6018 5.89085 12.6755V15.0745C5.46513 15.2065 5.15625 15.5891 5.15625 16.0604C5.15625 16.6341 5.61157 17.0903 6.18453 17.0903C6.75669 17.0903 7.21201 16.6341 7.21201 16.0604C7.21201 15.5891 6.90313 15.2065 6.47741 15.0745V12.7931L8.65 10.6149H13.9643C14.0819 10.6149 14.1843 10.5557 14.2283 10.4525L15.1094 8.68637C15.1238 8.64236 15.1382 8.59834 15.1382 8.55433V7.52365H16.4305V8.73118L16.0488 9.56981C16.0192 9.64343 16.0192 9.71705 16.0336 9.79067L17.326 13.2492C17.326 13.2636 17.326 13.2788 17.326 13.2932C17.3108 13.3084 17.3108 13.3084 17.2964 13.3084H16.0336C15.9456 13.3084 15.8576 13.3524 15.7992 13.4261C15.7399 13.4997 15.7255 13.6021 15.7551 13.6909L16.1072 14.7208L15.4319 14.9569C15.3438 14.9857 15.2702 15.0593 15.2414 15.1481C15.2118 15.2362 15.2262 15.3394 15.2854 15.413L15.7255 16.0164L15.3438 16.3108C15.2702 16.3693 15.2262 16.4581 15.2262 16.5461V17.2967C15.2262 17.6352 15.0501 17.9593 14.7565 18.1209C14.6244 18.209 14.4636 18.253 14.3019 18.253C13.0832 18.2682 8.38593 16.723 8.38593 14.1471V13.5285C8.38593 13.3668 8.2539 13.2348 8.09225 13.2348C7.93061 13.2348 7.79857 13.3668 7.79857 13.5285V14.1471C7.79857 17.2823 13.0688 18.8571 14.3163 18.8571C14.5804 18.8571 14.8445 18.7835 15.0654 18.6507C15.5351 18.3714 15.8136 17.8705 15.8136 17.3111V16.6934L16.2985 16.3108C16.4153 16.2076 16.4449 16.0308 16.3569 15.9131L15.9896 15.3978L16.577 15.1921C16.7234 15.1329 16.8122 14.9713 16.753 14.824L16.4449 13.8966H17.2964C17.502 13.8966 17.6925 13.7942 17.8101 13.6317C17.9277 13.4557 17.9565 13.2348 17.8837 13.0436L16.6354 9.70185L16.9883 8.92243C17.0027 8.87762 17.0171 8.84881 17.0171 8.804V7.18516C16.9291 4.96295 16.0192 3.09364 14.4044 1.76928C12.9368 0.562554 11.0427 -0.0408108 9.03171 0.0176053C9.0173 0.0176053 8.9877 0.0176053 8.97329 0.0176053H7.79857C7.63773 0.0176053 7.50489 0.150441 7.50489 0.312086V2.66713C7.50489 2.74075 7.5345 2.81437 7.59371 2.87278L8.76764 4.0507ZM11.9093 2.22541C12.159 2.22541 12.3494 2.41666 12.3494 2.66713C12.3494 2.9168 12.159 3.10885 11.9093 3.10885C11.6596 3.10885 11.4684 2.9168 11.4684 2.66713C11.4684 2.41666 11.6596 2.22541 11.9093 2.22541ZM11.7621 5.75757C12.0117 5.75757 12.203 5.94882 12.203 6.19929C12.203 6.44976 12.0117 6.64101 11.7621 6.64101C11.5124 6.64101 11.3219 6.44976 11.3219 6.19929C11.3219 5.94882 11.5124 5.75757 11.7621 5.75757ZM6.62465 16.0604C6.62465 16.3108 6.4334 16.5021 6.18453 16.5021C5.93486 16.5021 5.74361 16.3108 5.74361 16.0604C5.74361 15.8099 5.93486 15.6187 6.18453 15.6187C6.4334 15.6187 6.62465 15.8099 6.62465 16.0604ZM13.2305 4.43321C13.2305 4.18274 13.4209 3.99149 13.6706 3.99149C13.9202 3.99149 14.1107 4.18274 14.1107 4.43321C14.1107 4.68368 13.9202 4.87493 13.6706 4.87493C13.4209 4.87493 13.2305 4.68368 13.2305 4.43321ZM16.4153 6.93549H14.8445C14.6836 6.93549 14.5516 7.06753 14.5516 7.22917V8.48071L13.7882 10.0259H11.4684V8.70157H13.6706C13.8322 8.70157 13.9643 8.56874 13.9643 8.40709V5.41908C14.3019 5.31585 14.5516 5.05098 14.654 4.72769H15.9168C16.1809 5.38947 16.3569 6.12567 16.4153 6.93549Z" fill="#07FBFF"/>
</g>
<path d="M0.898663 2.03416V4.58045C0.898663 4.66848 0.942675 4.7573 1.00109 4.81572L2.61593 6.11127C2.63034 6.12567 2.64554 6.12567 2.65994 6.14008V9.28974C2.65994 9.36336 2.68955 9.42257 2.73356 9.48179L3.54098 10.4236V12.8667C3.11527 12.9987 2.80638 13.3821 2.80638 13.8526C2.80638 14.4263 3.26171 14.8833 3.83386 14.8833C4.40682 14.8833 4.86214 14.4263 4.86214 13.8526C4.86214 13.3821 4.55326 12.9987 4.12754 12.8667V10.3204C4.12754 10.2468 4.09874 10.1876 4.05472 10.1292L3.2473 9.18731V2.72555L4.7149 3.56498V4.16834C4.28919 4.30038 3.9811 4.68368 3.9811 5.15421C3.9811 5.72797 4.43643 6.18489 5.00858 6.18489C5.58074 6.18489 6.03606 5.72797 6.03606 5.15421C6.03606 4.68368 5.72798 4.30038 5.30226 4.16834V3.40253C5.30226 3.3001 5.24305 3.19688 5.15502 3.15286L3.10006 1.97494C3.01204 1.91653 2.89441 1.91653 2.80638 1.97494C2.71836 2.03416 2.65994 2.12218 2.65994 2.22541V5.38947L1.48522 4.43321V2.03416C1.91094 1.90132 2.21982 1.51882 2.21982 1.04829C2.21982 0.473733 1.7645 0.0176086 1.19234 0.0176086C0.619387 0.0176086 0.164062 0.473733 0.164062 1.04829C0.164062 1.51882 0.472947 1.90132 0.898663 2.03416ZM4.27478 13.8526C4.27478 14.103 4.08353 14.2943 3.83386 14.2943C3.585 14.2943 3.39374 14.103 3.39374 13.8526C3.39374 13.6021 3.585 13.4109 3.83386 13.4109C4.08353 13.4109 4.27478 13.6021 4.27478 13.8526ZM5.4487 5.16941C5.4487 5.41908 5.25825 5.61033 5.00858 5.61033C4.75892 5.61033 4.56846 5.41908 4.56846 5.16941C4.56846 4.91895 4.75892 4.72769 5.00858 4.72769C5.25825 4.72769 5.4487 4.91895 5.4487 5.16941ZM1.19234 0.606569C1.44121 0.606569 1.63246 0.797821 1.63246 1.04829C1.63246 1.29796 1.44121 1.48921 1.19234 1.48921C0.942675 1.48921 0.751423 1.29796 0.751423 1.04829C0.751423 0.797821 0.942675 0.606569 1.19234 0.606569Z" fill="#07FBFF"/>
<path d="M7.50694 4.69806V9.01044L5.30554 11.2182V9.09846C5.73125 8.96642 6.03934 8.58392 6.03934 8.11259C6.03934 7.53884 5.58401 7.08271 5.01186 7.08271C4.4397 7.08271 3.98438 7.53884 3.98438 8.11259C3.98438 8.58392 4.29246 8.96642 4.71818 9.09846V11.9392C4.71818 12.0569 4.7918 12.1601 4.89422 12.2041C4.93824 12.2337 4.96784 12.2337 5.01186 12.2337C5.08548 12.2337 5.1583 12.2041 5.21751 12.1457L8.00627 9.34893C8.06549 9.28971 8.0943 9.21609 8.0943 9.14327V4.58043C8.0943 4.50681 8.06549 4.43319 8.00627 4.37397L6.92038 3.28487V1.04826C6.92038 0.88582 6.78834 0.753784 6.6267 0.753784C6.46505 0.753784 6.33302 0.88582 6.33302 1.04826V3.40251C6.33302 3.47613 6.36262 3.54975 6.42104 3.60896L7.50694 4.69806ZM5.01186 8.55431C4.76219 8.55431 4.57174 8.36306 4.57174 8.11259C4.57174 7.86212 4.76219 7.67087 5.01186 7.67087C5.26152 7.67087 5.45198 7.86212 5.45198 8.11259C5.45198 8.36306 5.26152 8.55431 5.01186 8.55431Z" fill="#07FBFF"/>
<mask id="mask1_1391_11" style="mask-type:luminance" maskUnits="userSpaceOnUse" x="0" y="6" width="3" height="7">
<path d="M0 6.76022H2.12298V12.9059H0V6.76022Z" fill="white"/>
</mask>
<g mask="url(#mask1_1391_11)">
<path d="M0.0234375 11.7921C0.0234375 12.3658 0.478762 12.8227 1.05092 12.8227C1.62387 12.8227 2.0784 12.3658 2.0784 11.7921C2.0784 11.3215 1.77031 10.9382 1.3446 10.8062V8.80405C1.77031 8.67201 2.0784 8.28951 2.0784 7.81818C2.0784 7.24442 1.62387 6.7883 1.05092 6.7883C0.478762 6.7883 0.0234375 7.24442 0.0234375 7.81818C0.0234375 8.28951 0.331522 8.67201 0.757238 8.80405V10.8062C0.331522 10.9382 0.0234375 11.3215 0.0234375 11.7921ZM0.610798 7.81818C0.610798 7.56851 0.80125 7.37646 1.05092 7.37646C1.30059 7.37646 1.49104 7.56851 1.49104 7.81818C1.49104 8.06865 1.30059 8.2599 1.05092 8.2599C0.80125 8.2599 0.610798 8.06865 0.610798 7.81818ZM1.05092 11.3503C1.30059 11.3503 1.49104 11.5416 1.49104 11.7921C1.49104 12.0425 1.30059 12.2338 1.05092 12.2338C0.80125 12.2338 0.610798 12.0425 0.610798 11.7921C0.610798 11.5416 0.80125 11.3503 1.05092 11.3503Z" fill="#07FBFF"/>
</g>
</svg>
